<svg width="40" height="40" viewBox="0 0 40 40" fill="none" xmlns="http://www.w3.org/2000/svg">
<path d="M40 35.625V3.75H0.625V35.625H40Z" fill="url(#paint0_linear)"/>
<path d="M40 35.625V34.375H0.625V35.625H40Z" fill="#C7CDD8"/>
<path d="M34.9193 20.625H26.6632V39.375H34.9193V20.625Z" fill="url(#paint1_linear)"/>
<path d="M40 3.75H0.625V8.75H40V3.75Z" fill="url(#paint2_linear)"/>
<path d="M25.3932 11.875H15.2319V14.375H25.3932V11.875Z" fill="#9CA0AD"/>
<path d="M26.6634 14.375H13.9618V31.25H26.6634V14.375Z" fill="url(#paint3_linear)"/>
<path d="M13.9616 20.625H5.70557V39.375H13.9616V20.625Z" fill="url(#paint4_linear)"/>
<path d="M13.9616 38.125H5.70557V39.375H13.9616V38.125Z" fill="#838383"/>
<path d="M34.9193 38.125H26.6632V39.375H34.9193V38.125Z" fill="#838383"/>
<path d="M31.7439 39.375V35.625H28.994C28.7682 34.6166 28.3617 33.6557 27.7937 32.7875L29.7434 30.8687L27.0506 28.2188L25.1009 30.1375C24.2187 29.5785 23.2424 29.1785 22.2177 28.9563V26.25H18.4072V28.9563C17.3825 29.1785 16.4062 29.5785 15.5239 30.1375L13.5742 28.2188L10.8815 30.8687L12.8312 32.7875C12.2631 33.6557 11.8567 34.6166 11.6309 35.625H8.88098V39.375H31.7439Z" fill="url(#paint5_linear)"/>
<path d="M31.7439 38.125H8.88098V39.375H31.7439V38.125Z" fill="#5B8DC9"/>
<path d="M20.9474 18.75V17.5C20.9474 17.3342 20.8805 17.1753 20.7614 17.0581C20.6423 16.9408 20.4808 16.875 20.3123 16.875C20.1439 16.875 19.9824 16.9408 19.8633 17.0581C19.7442 17.1753 19.6772 17.3342 19.6772 17.5V18.75C19.6772 18.9158 19.7442 19.0747 19.8633 19.1919C19.9824 19.3092 20.1439 19.375 20.3123 19.375C20.4808 19.375 20.6423 19.3092 20.7614 19.1919C20.8805 19.0747 20.9474 18.9158 20.9474 18.75Z" fill="#ECECEC"/>
<path d="M24.123 18.75V17.5C24.123 17.3342 24.056 17.1753 23.9369 17.0581C23.8178 16.9408 23.6563 16.875 23.4879 16.875C23.3194 16.875 23.1579 16.9408 23.0388 17.0581C22.9197 17.1753 22.8528 17.3342 22.8528 17.5V18.75C22.8528 18.9158 22.9197 19.0747 23.0388 19.1919C23.1579 19.3092 23.3194 19.375 23.4879 19.375C23.6563 19.375 23.8178 19.3092 23.9369 19.1919C24.056 19.0747 24.123 18.9158 24.123 18.75Z" fill="#ECECEC"/>
<path d="M17.7722 18.75V17.5C17.7722 17.3342 17.7053 17.1753 17.5862 17.0581C17.4671 16.9408 17.3056 16.875 17.1372 16.875C16.9687 16.875 16.8072 16.9408 16.6881 17.0581C16.569 17.1753 16.5021 17.3342 16.5021 17.5V18.75C16.5021 18.9158 16.569 19.0747 16.6881 19.1919C16.8072 19.3092 16.9687 19.375 17.1372 19.375C17.3056 19.375 17.4671 19.3092 17.5862 19.1919C17.7053 19.0747 17.7722 18.9158 17.7722 18.75Z" fill="#ECECEC"/>
<path d="M20.9474 23.125V21.875C20.9474 21.7092 20.8805 21.5503 20.7614 21.4331C20.6423 21.3158 20.4808 21.25 20.3123 21.25C20.1439 21.25 19.9824 21.3158 19.8633 21.4331C19.7442 21.5503 19.6772 21.7092 19.6772 21.875V23.125C19.6772 23.2908 19.7442 23.4497 19.8633 23.5669C19.9824 23.6842 20.1439 23.75 20.3123 23.75C20.4808 23.75 20.6423 23.6842 20.7614 23.5669C20.8805 23.4497 20.9474 23.2908 20.9474 23.125Z" fill="#ECECEC"/>
<path d="M24.123 23.125V21.875C24.123 21.7092 24.056 21.5503 23.9369 21.4331C23.8178 21.3158 23.6563 21.25 23.4879 21.25C23.3194 21.25 23.1579 21.3158 23.0388 21.4331C22.9197 21.5503 22.8528 21.7092 22.8528 21.875V23.125C22.8528 23.2908 22.9197 23.4497 23.0388 23.5669C23.1579 23.6842 23.3194 23.75 23.4879 23.75C23.6563 23.75 23.8178 23.6842 23.9369 23.5669C24.056 23.4497 24.123 23.2908 24.123 23.125Z" fill="#ECECEC"/>
<path d="M17.7722 23.125V21.875C17.7722 21.7092 17.7053 21.5503 17.5862 21.4331C17.4671 21.3158 17.3056 21.25 17.1372 21.25C16.9687 21.25 16.8072 21.3158 16.6881 21.4331C16.569 21.5503 16.5021 21.7092 16.5021 21.875V23.125C16.5021 23.2908 16.569 23.4497 16.6881 23.5669C16.8072 23.6842 16.9687 23.75 17.1372 23.75C17.3056 23.75 17.4671 23.6842 17.5862 23.5669C17.7053 23.4497 17.7722 23.2908 17.7722 23.125Z" fill="#ECECEC"/>
<path d="M16.686 32.6814L14.7808 34.5564C14.7212 34.6145 14.674 34.6836 14.6417 34.7598C14.6095 34.8359 14.5929 34.9176 14.5929 35.0001C14.5929 35.0826 14.6095 35.1643 14.6417 35.2405C14.674 35.3166 14.7212 35.3858 14.7808 35.4439L16.686 37.3189C16.8056 37.4366 16.9678 37.5027 17.1369 37.5027C17.306 37.5027 17.4682 37.4366 17.5878 37.3189C17.7074 37.2012 17.7746 37.0416 17.7746 36.8751C17.7746 36.7087 17.7074 36.5491 17.5878 36.4314L16.1271 35.0001L17.5878 33.5689C17.7074 33.4512 17.7746 33.2916 17.7746 33.1251C17.7746 32.9587 17.7074 32.7991 17.5878 32.6814C17.4682 32.5637 17.306 32.4976 17.1369 32.4976C16.9678 32.4976 16.8056 32.5637 16.686 32.6814Z" fill="#ECECEC"/>
<path d="M23.9389 32.6814C23.8797 32.6231 23.8094 32.5769 23.732 32.5453C23.6547 32.5138 23.5718 32.4976 23.488 32.4976C23.4043 32.4976 23.3214 32.5138 23.244 32.5453C23.1666 32.5769 23.0963 32.6231 23.0371 32.6814C22.9779 32.7396 22.9309 32.8088 22.8989 32.885C22.8668 32.9611 22.8503 33.0427 22.8503 33.1251C22.8503 33.2075 22.8668 33.2891 22.8989 33.3653C22.9309 33.4414 22.9779 33.5106 23.0371 33.5689L24.4978 35.0001L23.0371 36.4314C22.9475 36.5188 22.8865 36.6305 22.8617 36.7522C22.8368 36.8739 22.8494 37.0001 22.8978 37.1148C22.9462 37.2294 23.0281 37.3273 23.1333 37.396C23.2384 37.4646 23.3619 37.5008 23.488 37.5001C23.8373 37.5001 23.7611 37.5001 25.8442 35.4439C25.9037 35.3858 25.9509 35.3166 25.9832 35.2405C26.0154 35.1643 26.032 35.0826 26.032 35.0001C26.032 34.9176 26.0154 34.8359 25.9832 34.7598C25.9509 34.6836 25.9037 34.6145 25.8442 34.5564L23.9389 32.6814Z" fill="#ECECEC"/>
<path d="M20.3443 32.9248L19.0742 36.6748C19.0419 36.7689 19.0328 36.8693 19.0478 36.9676C19.0628 37.0658 19.1014 37.1592 19.1604 37.2398C19.2194 37.3205 19.2971 37.3862 19.387 37.4314C19.4769 37.4766 19.5765 37.5 19.6775 37.4998C20.3126 37.4998 20.2046 37.2998 21.5827 33.3248C21.6366 33.1631 21.6231 32.9871 21.5451 32.8353C21.4671 32.6835 21.331 32.5684 21.1668 32.5154C21.0025 32.4623 20.8236 32.4757 20.6694 32.5524C20.5152 32.6292 20.3982 32.7631 20.3443 32.9248Z" fill="#ECECEC"/>
<path d="M8.24592 24.375H11.4213C11.5898 24.375 11.7513 24.3092 11.8704 24.1919C11.9895 24.0747 12.0564 23.9158 12.0564 23.75C12.0564 23.5842 11.9895 23.4253 11.8704 23.3081C11.7513 23.1908 11.5898 23.125 11.4213 23.125H8.24592C8.07749 23.125 7.91595 23.1908 7.79685 23.3081C7.67775 23.4253 7.61084 23.5842 7.61084 23.75C7.61084 23.9158 7.67775 24.0747 7.79685 24.1919C7.91595 24.3092 8.07749 24.375 8.24592 24.375Z" fill="#ECECEC"/>
<path d="M8.24592 27.5H11.4213C11.5898 27.5 11.7513 27.4342 11.8704 27.3169C11.9895 27.1997 12.0564 27.0408 12.0564 26.875C12.0564 26.7092 11.9895 26.5503 11.8704 26.4331C11.7513 26.3158 11.5898 26.25 11.4213 26.25H8.24592C8.07749 26.25 7.91595 26.3158 7.79685 26.4331C7.67775 26.5503 7.61084 26.7092 7.61084 26.875C7.61084 27.0408 7.67775 27.1997 7.79685 27.3169C7.91595 27.4342 8.07749 27.5 8.24592 27.5Z" fill="#ECECEC"/>
<path d="M32.379 23.125H29.2036C29.0351 23.125 28.8736 23.1908 28.7545 23.3081C28.6354 23.4253 28.5685 23.5842 28.5685 23.75C28.5685 23.9158 28.6354 24.0747 28.7545 24.1919C28.8736 24.3092 29.0351 24.375 29.2036 24.375H32.379C32.5474 24.375 32.7089 24.3092 32.828 24.1919C32.9471 24.0747 33.0141 23.9158 33.0141 23.75C33.0141 23.5842 32.9471 23.4253 32.828 23.3081C32.7089 23.1908 32.5474 23.125 32.379 23.125Z" fill="#ECECEC"/>
<path d="M32.379 26.25H29.2036C29.0351 26.25 28.8736 26.3158 28.7545 26.4331C28.6354 26.5503 28.5685 26.7092 28.5685 26.875C28.5685 27.0408 28.6354 27.1997 28.7545 27.3169C28.8736 27.4342 29.0351 27.5 29.2036 27.5H32.379C32.5474 27.5 32.7089 27.4342 32.828 27.3169C32.9471 27.1997 33.0141 27.0408 33.0141 26.875C33.0141 26.7092 32.9471 26.5503 32.828 26.4331C32.7089 26.3158 32.5474 26.25 32.379 26.25Z" fill="#ECECEC"/>
<path d="M3.80036 5.625C3.63193 5.625 3.47039 5.69085 3.35129 5.80806C3.23219 5.92527 3.16528 6.08424 3.16528 6.25C3.16528 6.41576 3.23219 6.57473 3.35129 6.69194C3.47039 6.80915 3.63193 6.875 3.80036 6.875C3.9688 6.875 4.13033 6.80915 4.24943 6.69194C4.36853 6.57473 4.43544 6.41576 4.43544 6.25C4.43544 6.08424 4.36853 5.92527 4.24943 5.80806C4.13033 5.69085 3.9688 5.625 3.80036 5.625Z" fill="#ECECEC"/>
<path d="M6.97578 5.625C6.80734 5.625 6.64581 5.69085 6.52671 5.80806C6.40761 5.92527 6.3407 6.08424 6.3407 6.25C6.3407 6.41576 6.40761 6.57473 6.52671 6.69194C6.64581 6.80915 6.80734 6.875 6.97578 6.875C7.14421 6.875 7.30575 6.80915 7.42485 6.69194C7.54395 6.57473 7.61086 6.41576 7.61086 6.25C7.61086 6.08424 7.54395 5.92527 7.42485 5.80806C7.30575 5.69085 7.14421 5.625 6.97578 5.625Z" fill="#ECECEC"/>
<path d="M10.1513 5.625C9.98288 5.625 9.82135 5.69085 9.70225 5.80806C9.58315 5.92527 9.51624 6.08424 9.51624 6.25C9.51624 6.41576 9.58315 6.57473 9.70225 6.69194C9.82135 6.80915 9.98288 6.875 10.1513 6.875C10.3198 6.875 10.4813 6.80915 10.6004 6.69194C10.7195 6.57473 10.7864 6.41576 10.7864 6.25C10.7864 6.08424 10.7195 5.92527 10.6004 5.80806C10.4813 5.69085 10.3198 5.625 10.1513 5.625Z" fill="#ECECEC"/>
<defs>
<linearGradient id="paint0_linear" x1="20.3125" y1="35.625" x2="20.3125" y2="3.75" gradientUnits="userSpaceOnUse">
<stop stop-color="#D4D8E1"/>
<stop offset="1" stop-color="#F3F4F5"/>
</linearGradient>
<linearGradient id="paint1_linear" x1="30.7912" y1="39.375" x2="30.7912" y2="20.625" gradientUnits="userSpaceOnUse">
<stop stop-color="#878C9F"/>
<stop offset="1" stop-color="#878C9F"/>
</linearGradient>
<linearGradient id="paint2_linear" x1="20.3125" y1="8.75" x2="20.3125" y2="3.75" gradientUnits="userSpaceOnUse">
<stop stop-color="#A0A6BA"/>
<stop offset="1" stop-color="#C6CCDA"/>
</linearGradient>
<linearGradient id="paint3_linear" x1="420.414" y1="858.125" x2="420.414" y2="402.5" gradientUnits="userSpaceOnUse">
<stop stop-color="#474F72"/>
<stop offset="1" stop-color="#878C9F"/>
</linearGradient>
<linearGradient id="paint4_linear" x1="133.674" y1="20.625" x2="133.674" y2="20.625" gradientUnits="userSpaceOnUse">
<stop stop-color="#474F72"/>
<stop offset="1" stop-color="#878C9F"/>
</linearGradient>
<linearGradient id="paint5_linear" x1="20.3124" y1="39.375" x2="20.3124" y2="26.25" gradientUnits="userSpaceOnUse">
<stop stop-color="#7AA8D7"/>
<stop offset="1" stop-color="#C3D2E7"/>
</linearGradient>
</defs>
</svg>
