<svg width="20" height="20" viewBox="0 0 20 20" fill="none" xmlns="http://www.w3.org/2000/svg">
<path d="M9.99999 18.75L4.72749 12.5319C4.65423 12.4385 4.58173 12.3445 4.50999 12.25C3.60935 11.0636 3.12281 9.61452 3.12499 8.125C3.12499 6.30164 3.84932 4.55295 5.13863 3.26364C6.42795 1.97433 8.17663 1.25 9.99999 1.25C11.8234 1.25 13.572 1.97433 14.8614 3.26364C16.1507 4.55295 16.875 6.30164 16.875 8.125C16.8772 9.61384 16.3908 11.0623 15.4906 12.2481L15.49 12.25C15.49 12.25 15.3025 12.4963 15.2744 12.5294L9.99999 18.75ZM5.50749 11.4969C5.50874 11.4969 5.65374 11.6894 5.68687 11.7306L9.99999 16.8175L14.3187 11.7237C14.3462 11.6894 14.4925 11.4956 14.4931 11.495C15.2288 10.5257 15.6264 9.34189 15.625 8.125C15.625 6.63316 15.0324 5.20242 13.9775 4.14752C12.9226 3.09263 11.4918 2.5 9.99999 2.5C8.50815 2.5 7.07741 3.09263 6.02252 4.14752C4.96762 5.20242 4.37499 6.63316 4.37499 8.125C4.37368 9.34265 4.77173 10.5271 5.50812 11.4969H5.50749Z" fill="#37474F"/>
<path d="M13.125 11.25H11.875V6.25H8.125V11.25H6.875V6.25C6.87533 5.91858 7.00713 5.60083 7.24148 5.36648C7.47583 5.13213 7.79358 5.00033 8.125 5H11.875C12.2064 5.00033 12.5242 5.13213 12.7585 5.36648C12.9929 5.60083 13.1247 5.91858 13.125 6.25V11.25Z" fill="#37474F"/>
<path d="M9.375 10H10.625V11.25H9.375V10Z" fill="#37474F"/>
<path d="M9.375 7.5H10.625V8.75H9.375V7.5Z" fill="#37474F"/>
</svg>
