<svg width="25" height="25" viewBox="0 0 25 25" fill="none" xmlns="http://www.w3.org/2000/svg">
<path d="M23.5208 5.7774L19.4444 1.68018C19.1751 1.41217 18.8105 1.26172 18.4305 1.26172C18.0505 1.26172 17.686 1.41217 17.4166 1.68018L2.96526 16.1107L1.64581 21.8052C1.6003 22.0133 1.60186 22.229 1.65038 22.4365C1.6989 22.644 1.79316 22.838 1.92627 23.0044C2.05938 23.1708 2.22798 23.3054 2.41975 23.3982C2.61152 23.4911 2.82162 23.54 3.0347 23.5413C3.13399 23.5513 3.23403 23.5513 3.33331 23.5413L9.09026 22.2218L23.5208 7.80518C23.7888 7.53581 23.9393 7.17128 23.9393 6.79129C23.9393 6.41131 23.7888 6.04678 23.5208 5.7774ZM8.39581 20.9718L2.99998 22.1038L4.22915 16.8121L15.0416 6.04129L19.2083 10.208L8.39581 20.9718ZM20.1389 9.20102L15.9722 5.03435L18.3889 2.63157L22.4861 6.79824L20.1389 9.20102Z" fill="#22AED1"/>
</svg>
