<svg width="16" height="16" viewBox="0 0 16 16" fill="none" xmlns="http://www.w3.org/2000/svg">
<path d="M8.1866 7.24914C7.68672 7.24388 7.19958 7.09084 6.78649 6.8093C6.37341 6.52775 6.05286 6.13029 5.8652 5.66694C5.67754 5.2036 5.63116 4.69509 5.7319 4.20544C5.83264 3.71579 6.076 3.26689 6.43133 2.91526C6.78666 2.56363 7.23809 2.32499 7.72876 2.22938C8.21944 2.13377 8.72743 2.18547 9.18879 2.37798C9.65014 2.57048 10.0442 2.89517 10.3214 3.31118C10.5986 3.72718 10.7466 4.21591 10.7466 4.71581C10.7419 5.39086 10.4698 6.03654 9.98999 6.51138C9.51015 6.98622 8.86167 7.25151 8.1866 7.24914ZM8.1866 3.07137C7.86255 3.07662 7.54727 3.17752 7.28037 3.36138C7.01348 3.54523 6.80686 3.80386 6.68648 4.10477C6.56609 4.40568 6.53731 4.73545 6.60374 5.05266C6.67017 5.36987 6.82885 5.66039 7.05986 5.88771C7.29086 6.11503 7.58389 6.26902 7.90213 6.33034C8.22037 6.39166 8.54964 6.35757 8.84857 6.23236C9.1475 6.10715 9.40277 5.8964 9.58232 5.62658C9.76186 5.35676 9.85767 5.03991 9.85771 4.71581C9.85302 4.27651 9.6746 3.85693 9.36146 3.54878C9.04832 3.24064 8.62592 3.06899 8.1866 3.07137Z" fill="#163663"/>
<path d="M8.1866 7.24914C7.68672 7.24388 7.19958 7.09084 6.78649 6.8093C6.37341 6.52775 6.05286 6.13029 5.8652 5.66694C5.67754 5.2036 5.63116 4.69509 5.7319 4.20544C5.83264 3.71579 6.076 3.26689 6.43133 2.91526C6.78666 2.56363 7.23809 2.32499 7.72876 2.22938C8.21944 2.13377 8.72743 2.18547 9.18879 2.37798C9.65014 2.57048 10.0442 2.89517 10.3214 3.31118C10.5986 3.72718 10.7466 4.21591 10.7466 4.71581C10.7419 5.39086 10.4698 6.03654 9.98999 6.51138C9.51015 6.98622 8.86167 7.25151 8.1866 7.24914ZM8.1866 3.07137C7.86255 3.07662 7.54727 3.17752 7.28037 3.36138C7.01348 3.54523 6.80686 3.80386 6.68648 4.10477C6.56609 4.40568 6.53731 4.73545 6.60374 5.05266C6.67017 5.36987 6.82885 5.66039 7.05986 5.88771C7.29086 6.11503 7.58389 6.26902 7.90213 6.33034C8.22037 6.39166 8.54964 6.35757 8.84857 6.23236C9.1475 6.10715 9.40277 5.8964 9.58232 5.62658C9.76186 5.35676 9.85767 5.03991 9.85771 4.71581C9.85302 4.27651 9.6746 3.85693 9.36146 3.54878C9.04832 3.24064 8.62592 3.06899 8.1866 3.07137Z" fill="#163663"/>
<path d="M9.73774 7.84454C7.76643 7.50151 5.73702 7.81373 3.95997 8.73343C3.83382 8.80347 3.72937 8.90685 3.65804 9.03227C3.5867 9.15769 3.55124 9.30032 3.55552 9.44454V11.0268C3.55552 11.1446 3.60235 11.2577 3.6857 11.341C3.76905 11.4244 3.88209 11.4712 3.99997 11.4712C4.11784 11.4712 4.23089 11.4244 4.31424 11.341C4.39759 11.2577 4.44441 11.1446 4.44441 11.0268V9.50232C6.09226 8.67549 7.96618 8.41314 9.77774 8.75565L9.73774 7.84454Z" fill="#163663"/>
<path d="M14.6666 9.778H11.6889V9.12023C11.6889 9.00235 11.642 8.88931 11.5587 8.80596C11.4753 8.72261 11.3623 8.67578 11.2444 8.67578C11.1265 8.67578 11.0135 8.72261 10.9301 8.80596C10.8468 8.88931 10.8 9.00235 10.8 9.12023V9.778H7.55553C7.43765 9.778 7.32461 9.82483 7.24126 9.90818C7.15791 9.99153 7.11108 10.1046 7.11108 10.2224V14.6669C7.11108 14.7848 7.15791 14.8978 7.24126 14.9812C7.32461 15.0645 7.43765 15.1113 7.55553 15.1113H14.6666C14.7845 15.1113 14.8976 15.0645 14.9809 14.9812C15.0643 14.8978 15.1111 14.7848 15.1111 14.6669V10.2224C15.1111 10.1046 15.0643 9.99153 14.9809 9.90818C14.8976 9.82483 14.7845 9.778 14.6666 9.778ZM14.2222 14.2224H7.99997V10.6669H10.8V10.8491C10.8 10.967 10.8468 11.08 10.9301 11.1634C11.0135 11.2467 11.1265 11.2936 11.2444 11.2936C11.3623 11.2936 11.4753 11.2467 11.5587 11.1634C11.642 11.08 11.6889 10.967 11.6889 10.8491V10.6669H14.2222V14.2224Z" fill="#163663"/>
<path d="M9.69336 12.187H12.3422V12.8092H9.69336V12.187Z" fill="#163663"/>
<path d="M4.81781 5.43994C3.58734 5.46053 2.3782 5.76471 1.28447 6.32883C1.16552 6.39166 1.06588 6.48564 0.996211 6.60072C0.926539 6.71579 0.889452 6.84764 0.888916 6.98216V8.35994C0.888916 8.47782 0.935741 8.59086 1.01909 8.67421C1.10244 8.75756 1.21549 8.80439 1.33336 8.80439C1.45123 8.80439 1.56428 8.75756 1.64763 8.67421C1.73098 8.59086 1.7778 8.47782 1.7778 8.35994V7.07105C2.82283 6.55089 3.97983 6.29598 5.14669 6.32883C4.99403 6.05028 4.88321 5.75078 4.81781 5.43994Z" fill="#163663"/>
<path d="M14.7157 6.32492C13.7347 5.81035 12.6567 5.50752 11.5513 5.43604C11.4862 5.74632 11.3769 6.04566 11.2268 6.32492C12.2682 6.34985 13.2911 6.60483 14.2224 7.07159V8.36048C14.2224 8.47835 14.2692 8.5914 14.3525 8.67475C14.4359 8.7581 14.5489 8.80492 14.6668 8.80492C14.7847 8.80492 14.8977 8.7581 14.9811 8.67475C15.0644 8.5914 15.1112 8.47835 15.1112 8.36048V6.9827C15.1115 6.84742 15.0748 6.71464 15.0051 6.59871C14.9354 6.48278 14.8353 6.38811 14.7157 6.32492Z" fill="#163663"/>
<path d="M4.73785 4.71556V4.41778C4.38968 4.37119 4.07289 4.19211 3.85344 3.91783C3.63398 3.64354 3.52876 3.29519 3.55969 2.94528C3.59061 2.59537 3.7553 2.27086 4.01946 2.03932C4.28362 1.80778 4.6269 1.68704 4.97785 1.70223C5.34288 1.70157 5.69373 1.8435 5.95563 2.09778C6.18669 1.9072 6.44047 1.74597 6.71118 1.61778C6.40879 1.27008 6.00813 1.02216 5.56202 0.906705C5.11591 0.791252 4.64528 0.813685 4.21218 0.971047C3.77907 1.12841 3.40381 1.41331 3.13586 1.78821C2.86791 2.1631 2.71985 2.61039 2.71118 3.07112C2.72051 3.63501 2.93971 4.17517 3.32598 4.58609C3.71225 4.99702 4.23783 5.24918 4.80007 5.29334C4.76237 5.10295 4.74155 4.90961 4.73785 4.71556Z" fill="#163663"/>
<path d="M11.0089 0.813494C10.7035 0.813562 10.4011 0.874519 10.1195 0.992803C9.83794 1.11109 9.58275 1.28432 9.3689 1.50238C9.66936 1.61126 9.95348 1.7608 10.2133 1.94683C10.4208 1.8028 10.6635 1.71778 10.9155 1.70083C11.1675 1.68389 11.4194 1.73566 11.6443 1.85061C11.8692 1.96557 12.0587 2.13942 12.1926 2.3536C12.3264 2.56779 12.3997 2.81429 12.4045 3.06683C12.4017 3.32622 12.3254 3.57952 12.1847 3.7974C12.0439 4.01527 11.8442 4.18882 11.6089 4.29794C11.6268 4.43499 11.6357 4.57306 11.6356 4.71127C11.6344 4.88992 11.6195 5.06822 11.5911 5.2446C12.0753 5.12013 12.5047 4.83908 12.8126 4.44521C13.1205 4.05133 13.2895 3.56673 13.2933 3.06683C13.2875 2.46563 13.0439 1.89118 12.6159 1.46898C12.1878 1.04677 11.6101 0.811117 11.0089 0.813494Z" fill="#163663"/>
</svg>
