<svg width="16" height="16" viewBox="0 0 16 16" fill="none" xmlns="http://www.w3.org/2000/svg">
<path d="M7.74196 5.41929C7.74196 3.56949 6.23692 2.06445 4.38713 2.06445C2.53733 2.06445 1.03229 3.56949 1.03229 5.41929C1.03229 7.26909 2.53733 8.77413 4.38713 8.77413C6.23692 8.77413 7.74196 7.26909 7.74196 5.41929ZM1.54842 5.41929C1.54842 3.85415 2.82198 2.58058 4.38713 2.58058C5.95227 2.58058 7.22584 3.85415 7.22584 5.41929C7.22584 6.98444 5.95227 8.258 4.38713 8.258C2.82198 8.258 1.54842 6.98444 1.54842 5.41929Z" fill="#37474F"/>
<path d="M4.64516 14.7097C4.64516 14.8522 4.52961 14.9678 4.38709 14.9678C4.24458 14.9678 4.12903 14.8522 4.12903 14.7097C4.12903 14.5672 4.24458 14.4517 4.38709 14.4517C4.52961 14.4517 4.64516 14.5672 4.64516 14.7097Z" fill="#37474F"/>
<path d="M9.80646 2.06448H10.3226C10.3226 1.77983 10.5541 1.54836 10.8387 1.54836C11.1234 1.54836 11.3548 1.77983 11.3548 2.06448H11.871C11.871 1.49518 11.408 1.03223 10.8387 1.03223C10.2694 1.03223 9.80646 1.49518 9.80646 2.06448Z" fill="#37474F"/>
<path d="M10.8387 0.516129C11.6926 0.516129 12.3871 1.21056 12.3871 2.06452H12.9032C12.9032 0.926159 11.977 0 10.8387 0C9.70033 0 8.77417 0.926159 8.77417 2.06452H9.2903C9.2903 1.21056 9.98473 0.516129 10.8387 0.516129Z" fill="#37474F"/>
<path d="M10.8387 2.58061C9.9128 2.58061 9.01525 2.8286 8.22329 3.29571C7.47379 1.94755 6.03591 1.03223 4.3871 1.03223C1.96799 1.03223 0 3.00022 0 5.41932C0 7.57394 1.56237 9.36665 3.6129 9.73396V10.3225H3.09677V14.7096C3.09677 15.4211 3.67566 16 4.3871 16C5.09854 16 5.67742 15.4211 5.67742 14.7096V10.3225H5.16129V9.73396C5.44846 9.68255 5.72568 9.60329 5.99068 9.49883C6.72366 11.5161 8.6749 12.9032 10.8387 12.9032C13.6846 12.9032 16 10.5878 16 7.7419C16 4.89601 13.6846 2.58061 10.8387 2.58061ZM8.93057 3.50891C9.03024 3.6193 9.11996 3.73447 9.18863 3.85783C9.63508 4.66164 10.4839 5.16126 11.4036 5.16126C11.6787 5.16126 11.9461 5.2162 12.1987 5.32431L13.1987 5.75299C13.3329 5.81058 13.4194 5.94163 13.4194 6.08767C13.4194 6.28827 13.256 6.45158 13.0552 6.45158H12.4583C11.9953 6.45158 11.5851 6.7293 11.4132 7.15924C11.2718 7.51295 10.9337 7.7419 10.5525 7.7419C10.0973 7.7419 9.71283 7.41592 9.63798 6.96721C9.56313 6.519 9.17906 6.19352 8.72467 6.19352H8.70174C8.7466 5.94163 8.77419 5.68381 8.77419 5.41932C8.77419 4.83351 8.65675 4.27504 8.44745 3.76358C8.60408 3.66907 8.76512 3.58376 8.93057 3.50891ZM0.516129 5.41932C0.516129 3.28487 2.25265 1.54836 4.3871 1.54836C6.52155 1.54836 8.25806 3.28487 8.25806 5.41932C8.25806 7.55377 6.52155 9.29029 4.3871 9.29029C2.25265 9.29029 0.516129 7.55377 0.516129 5.41932ZM5.16129 14.7096C5.16129 15.1364 4.81389 15.4838 4.3871 15.4838C3.96031 15.4838 3.6129 15.1364 3.6129 14.7096V10.8387H5.16129V14.7096ZM4.64516 10.3225H4.12903V9.79331C4.21497 9.79848 4.2999 9.80642 4.3871 9.80642C4.47429 9.80642 4.55922 9.79848 4.64516 9.79331V10.3225ZM6.46169 9.28336C6.93574 9.02782 7.35559 8.6857 7.70501 8.28097L8.00176 8.7264C8.2374 9.07948 8.63143 9.29029 9.05595 9.29029C9.46963 9.29029 9.80645 9.62711 9.80645 10.0408V11.3785C9.80645 11.6756 9.7185 11.9551 9.55948 12.2004C8.14062 11.7873 6.96459 10.7081 6.46169 9.28336ZM10.0874 12.3248C10.2398 12.0342 10.3226 11.7091 10.3226 11.3785V10.0408C10.3226 9.34246 9.75428 8.77416 9.05595 8.77416C8.80443 8.77416 8.57107 8.64929 8.43145 8.43999L8.03717 7.84876C8.26966 7.5006 8.45388 7.11791 8.57989 6.70965H8.72442C8.9254 6.70965 9.09551 6.85367 9.12853 7.05188C9.24521 7.75072 9.84413 8.25803 10.5525 8.25803C11.146 8.25803 11.672 7.90193 11.8926 7.35065C11.9855 7.11816 12.2078 6.96771 12.4583 6.96771H13.0552C13.5407 6.96771 13.9355 6.57293 13.9355 6.08767C13.9355 5.73523 13.7259 5.41756 13.4021 5.2787L12.4021 4.85002C12.0849 4.71406 11.7491 4.64513 11.4036 4.64513C10.6712 4.64513 9.99509 4.24745 9.63974 3.60745C9.58291 3.50551 9.51663 3.40723 9.44367 3.31222C9.89188 3.17084 10.361 3.09674 10.8387 3.09674C13.2477 3.09674 15.2332 4.94062 15.4609 7.29105C15.063 7.18961 14.6444 7.20952 14.2495 7.35329C14.0108 7.43974 13.7611 7.48384 13.5071 7.48384H13.0616C12.7025 7.48384 12.3842 7.69931 12.2506 8.03298L12.0441 8.54962C11.9894 8.68596 11.8594 8.77416 11.7122 8.77416C11.2307 8.77416 10.8387 9.16617 10.8387 9.64765C10.8387 10.314 11.1605 10.9458 11.6993 11.338L12.641 12.0229C12.0867 12.2573 11.4777 12.3871 10.8387 12.3871C10.5843 12.3871 10.3332 12.3659 10.0874 12.3248ZM13.1579 11.7604L12.0031 10.9205C11.5972 10.6252 11.3548 10.1494 11.3548 9.64765C11.3548 9.45057 11.5154 9.29029 11.7122 9.29029C12.0714 9.29029 12.3896 9.07482 12.5233 8.74115L12.7298 8.22451C12.7845 8.08817 12.9148 7.99997 13.0616 7.99997H13.5071C13.8212 7.99997 14.1303 7.94553 14.426 7.83792C14.7703 7.7128 15.1386 7.71305 15.4792 7.83616C15.4452 9.51244 14.5203 10.9714 13.1579 11.7604Z" fill="#37474F"/>
</svg>
