<svg width="34" height="33" viewBox="0 0 34 33" fill="none" xmlns="http://www.w3.org/2000/svg">
<path d="M0.5 16.4999C0.5 7.3872 7.8873 -0.000106812 17 -0.000106812C26.1127 -0.000106812 33.5 7.3872 33.5 16.4999C33.5 25.6126 26.1127 32.9999 17 32.9999C7.8873 32.9999 0.5 25.6126 0.5 16.4999Z" fill="white"/>
<path fill-rule="evenodd" clip-rule="evenodd" d="M23.875 4.81239C23.875 4.43289 23.5656 4.12489 23.1875 4.12489H19.75C15.9523 4.12489 12.875 6.89552 12.875 10.3124V14.0249H9.4375C9.058 14.0249 8.75 14.3329 8.75 14.7124V18.2874C8.75 18.6669 9.058 18.9749 9.4375 18.9749H12.875V28.1874C12.875 28.5669 13.183 28.8749 13.5625 28.8749H17.6875C18.0656 28.8749 18.375 28.5669 18.375 28.1874V18.9749H21.9761C22.2855 18.9749 22.5564 18.7686 22.6403 18.4716L23.6316 14.8966C23.754 14.4594 23.424 14.0249 22.9703 14.0249H18.375V10.3124C18.375 9.62902 18.9896 9.07489 19.75 9.07489H23.1875C23.5656 9.07489 23.875 8.76689 23.875 8.38739V4.81239Z" fill="#517BCB"/>
</svg>
