<svg width="34" height="33" viewBox="0 0 34 33" fill="none" xmlns="http://www.w3.org/2000/svg">
<path d="M30.4826 13.807H29.375V13.7499H17V19.2499H24.7708C23.6371 22.4516 20.5908 24.7499 17 24.7499C12.4439 24.7499 8.75 21.056 8.75 16.4999C8.75 11.9438 12.4439 8.24989 17 8.24989C19.1031 8.24989 21.0164 9.04327 22.4732 10.3392L26.3624 6.45002C23.9066 4.16133 20.6217 2.74989 17 2.74989C9.40656 2.74989 3.25 8.90646 3.25 16.4999C3.25 24.0933 9.40656 30.2499 17 30.2499C24.5934 30.2499 30.75 24.0933 30.75 16.4999C30.75 15.578 30.6551 14.678 30.4826 13.807Z" fill="#FFC107"/>
<path d="M4.83533 10.1L9.35289 13.413C10.5753 10.3866 13.5356 8.24989 17 8.24989C19.103 8.24989 21.0163 9.04327 22.4731 10.3392L26.3623 6.45002C23.9066 4.16133 20.6217 2.74989 17 2.74989C11.7186 2.74989 7.13845 5.73158 4.83533 10.1Z" fill="#FF3D00"/>
<path d="M17 30.2499C20.5516 30.2499 23.7787 28.8907 26.2187 26.6804L21.963 23.0793C20.5362 24.1644 18.7926 24.7513 17 24.7499C13.4236 24.7499 10.3869 22.4695 9.24291 19.287L4.75903 22.7417C7.03466 27.1946 11.656 30.2499 17 30.2499Z" fill="#4CAF50"/>
<path d="M30.4826 13.807H29.375V13.7499H17V19.2499H24.7708C24.2285 20.7737 23.2517 22.1052 21.961 23.08L21.9631 23.0786L26.2187 26.6797C25.9176 26.9533 30.75 23.3749 30.75 16.4999C30.75 15.578 30.6551 14.678 30.4826 13.807Z" fill="#1976D2"/>
</svg>
