<svg width="16" height="16" viewBox="0 0 16 16" fill="none" xmlns="http://www.w3.org/2000/svg">
<g clip-path="url(#clip0_236:3021)">
<path d="M15.8299 6.50198L8.24567 0.948949C8.09942 0.841887 7.90073 0.841887 7.75455 0.948949L0.170235 6.50198C-0.0150146 6.63764 -0.0552646 6.89776 0.0803916 7.08301C0.216048 7.26826 0.476204 7.30845 0.661423 7.17286L8.00008 1.79961L15.3387 7.17283C15.4127 7.22704 15.4987 7.25314 15.584 7.25314C15.712 7.25314 15.8383 7.19423 15.9197 7.08298C16.0554 6.89776 16.0152 6.63764 15.8299 6.50198Z" fill="#37474F"/>
<path d="M13.8201 7.26685C13.5905 7.26685 13.4044 7.45297 13.4044 7.68256V14.2997H10.0787V10.6877C10.0787 9.54141 9.14613 8.60891 7.99994 8.60891C6.85376 8.60891 5.92119 9.54147 5.92119 10.6877V14.2998H2.59548V7.6826C2.59548 7.453 2.40932 7.26688 2.17976 7.26688C1.95019 7.26688 1.76404 7.453 1.76404 7.6826V14.7155C1.76404 14.9451 1.95019 15.1312 2.17976 15.1312H6.33691C6.55554 15.1312 6.73444 14.9623 6.75101 14.7479C6.75201 14.7382 6.75263 14.7275 6.75263 14.7155V10.6877C6.75263 9.99991 7.31216 9.44038 7.99994 9.44038C8.68773 9.44038 9.24726 9.99994 9.24726 10.6877V14.7155C9.24726 14.7275 9.24788 14.7379 9.24888 14.7475C9.26526 14.9621 9.44423 15.1312 9.66298 15.1312H13.8201C14.0497 15.1312 14.2359 14.9451 14.2359 14.7155V7.6826C14.2358 7.45297 14.0497 7.26685 13.8201 7.26685Z" fill="#37474F"/>
</g>
<defs>
<clipPath id="clip0_236:3021">
<rect width="16" height="16" fill="white"/>
</clipPath>
</defs>
</svg>
