<svg width="16" height="16" viewBox="0 0 16 16" fill="none" xmlns="http://www.w3.org/2000/svg">
<path d="M14.3519 3L10.25 7.05312V3H9.17109L5.25 6.97709V0.5H0.5V15.5H15.5V3H14.3519ZM14.5 14.5H1.5V1.5H4.25V8.25H5.39931L9.25 4.34431V8.25H10.4614L14.5 4.25938V14.5Z" fill="#163663"/>
<path d="M4.25 10.25V10.5H5.25V9.5H4.25V10.25Z" fill="#163663"/>
<path d="M4.25 11.75H5.25V12.75H4.25V11.75Z" fill="#163663"/>
<path d="M6.75 10.25V10.5H7.75V9.5H6.75V10.25Z" fill="#163663"/>
<path d="M6.75 11.75H7.75V12.75H6.75V11.75Z" fill="#163663"/>
<path d="M9.25 10.25V10.5H10.25V9.5H9.25V10.25Z" fill="#163663"/>
<path d="M9.25 11.75H10.25V12.75H9.25V11.75Z" fill="#163663"/>
<path d="M11.75 9.5H12.75V10.5H11.75V9.5Z" fill="#163663"/>
<path d="M11.75 11.75H12.75V12.75H11.75V11.75Z" fill="#163663"/>
</svg>
