<svg width="20" height="20" viewBox="0 0 20 20" fill="none" xmlns="http://www.w3.org/2000/svg">
<path d="M12.8978 10.3218L11.2291 10.0834C11.2528 10.0117 11.249 9.93371 11.2184 9.86463C11.1967 9.81963 11.1644 9.7805 11.1244 9.75054C11.0844 9.72058 11.0378 9.70066 10.9884 9.69245L9.375 9.42307V8.95245C9.75734 8.73154 10.0886 8.43227 10.3472 8.07428C10.6057 7.71629 10.7856 7.30768 10.875 6.87526H11.25C11.4986 6.87526 11.7371 6.77649 11.9129 6.60067C12.0887 6.42486 12.1875 6.1864 12.1875 5.93776C12.1875 5.68912 12.0887 5.45066 11.9129 5.27485C11.7371 5.09903 11.4986 5.00026 11.25 5.00026H10.9631L11.2694 4.29057C11.5311 3.68387 11.5444 2.99875 11.3066 2.38229C11.0688 1.76584 10.5988 1.26719 9.9975 0.993383L9.125 0.596196C8.60884 0.367138 8.0413 0.278581 7.47989 0.339496C6.91848 0.400412 6.38315 0.608635 5.92812 0.943071L5.43531 1.31276C5.15425 1.38496 4.89292 1.51918 4.67049 1.70555C4.44806 1.89191 4.27018 2.12572 4.14989 2.3898C4.02959 2.65388 3.96995 2.94154 3.97532 3.23167C3.98069 3.52181 4.05095 3.80706 4.18094 4.06651L4.64844 5.00026H4.375C4.12636 5.00026 3.8879 5.09903 3.71209 5.27485C3.53627 5.45066 3.4375 5.68912 3.4375 5.93776C3.4375 6.1864 3.53627 6.42486 3.71209 6.60067C3.8879 6.77649 4.12636 6.87526 4.375 6.87526H4.75C4.83944 7.30768 5.01933 7.71629 5.27784 8.07428C5.53636 8.43227 5.86766 8.73154 6.25 8.95245V9.42307L4.63562 9.69213C4.58628 9.70038 4.53963 9.72035 4.49961 9.75036C4.45959 9.78038 4.42735 9.81957 4.40562 9.86463C4.375 9.93369 4.37122 10.0117 4.395 10.0834L2.72719 10.3218C2.05821 10.4203 1.4467 10.7553 1.00365 11.2661C0.560607 11.777 0.315386 12.4297 0.3125 13.1059V19.3753C0.3125 19.4581 0.345424 19.5376 0.404029 19.5962C0.462634 19.6548 0.54212 19.6878 0.625 19.6878H15C15.0829 19.6878 15.1624 19.6548 15.221 19.5962C15.2796 19.5376 15.3125 19.4581 15.3125 19.3753V13.1059C15.3096 12.4297 15.0644 11.777 14.6213 11.2661C14.1783 10.7553 13.5668 10.4203 12.8978 10.3218ZM9.32875 10.049L10.4488 10.2365L9.32375 12.2634L8.38625 11.1384C8.61914 11.0456 8.82632 10.8982 8.99035 10.7086C9.15437 10.519 9.27043 10.2928 9.32875 10.049ZM11.5625 5.93776C11.5625 6.02064 11.5296 6.10012 11.471 6.15873C11.4124 6.21733 11.3329 6.25026 11.25 6.25026H10.9375V5.62526H11.25C11.3329 5.62526 11.4124 5.65818 11.471 5.71679C11.5296 5.77539 11.5625 5.85488 11.5625 5.93776ZM4.78969 2.51682C4.90766 2.32159 5.0739 2.16001 5.27241 2.04765C5.47092 1.93528 5.69502 1.87591 5.92313 1.87526C6.16386 1.87503 6.40091 1.93434 6.61317 2.04791C6.82543 2.16148 7.00631 2.32579 7.13969 2.5262L7.23781 2.6737L7.75781 2.32682L7.65969 2.17963C7.38194 1.76348 6.9636 1.46129 6.48125 1.32838C6.83578 1.10974 7.23817 0.980622 7.65373 0.952149C8.06928 0.923676 8.48552 0.996707 8.86656 1.16495L9.73875 1.56276C10.1911 1.76885 10.5447 2.14409 10.7236 2.60793C10.9024 3.07177 10.8923 3.58724 10.6953 4.0437L10.6016 4.25776L10.2812 3.61057C10.2608 3.56936 10.2316 3.53316 10.1955 3.50456C10.1595 3.47596 10.1176 3.45567 10.0728 3.44513C10.0281 3.43459 9.9815 3.43407 9.9365 3.4436C9.8915 3.45313 9.84916 3.47248 9.8125 3.50026L9.3125 3.87526C8.87976 4.19981 8.35343 4.37526 7.8125 4.37526C7.27157 4.37526 6.74524 4.19981 6.3125 3.87526L5.8125 3.50026C5.77584 3.47248 5.7335 3.45313 5.6885 3.4436C5.6435 3.43407 5.59695 3.43459 5.55217 3.44513C5.5074 3.45567 5.4655 3.47596 5.42947 3.50456C5.39344 3.53316 5.36417 3.56936 5.34375 3.61057L5 4.3037L4.74187 3.78776C4.64182 3.58913 4.59373 3.36838 4.60209 3.14613C4.61045 2.92388 4.67499 2.70737 4.78969 2.51682ZM4.375 6.25026C4.29212 6.25026 4.21263 6.21733 4.15403 6.15873C4.09542 6.10012 4.0625 6.02064 4.0625 5.93776C4.0625 5.85488 4.09542 5.77539 4.15403 5.71679C4.21263 5.65818 4.29212 5.62526 4.375 5.62526H4.6875V6.25026H4.375ZM5.3125 6.25026V5.07401L5.73688 4.22495L5.9375 4.37526C6.47843 4.78095 7.13634 5.00026 7.8125 5.00026C8.48866 5.00026 9.14657 4.78095 9.6875 4.37526L9.88813 4.22495L10.3125 5.07401V6.25026C10.3125 6.9133 10.0491 7.54918 9.58027 8.01803C9.11143 8.48687 8.47554 8.75026 7.8125 8.75026C7.14946 8.75026 6.51357 8.48687 6.04473 8.01803C5.57589 7.54918 5.3125 6.9133 5.3125 6.25026ZM7.8125 9.37526C8.13053 9.37544 8.4467 9.32686 8.75 9.2312V9.68776C8.75 9.9364 8.65123 10.1749 8.47541 10.3507C8.2996 10.5265 8.06114 10.6253 7.8125 10.6253C7.56386 10.6253 7.3254 10.5265 7.14959 10.3507C6.97377 10.1749 6.875 9.9364 6.875 9.68776V9.2312C7.1783 9.32686 7.49447 9.37544 7.8125 9.37526ZM6.29625 10.049C6.35454 10.2928 6.47064 10.519 6.63473 10.7085C6.79883 10.898 7.0061 11.0452 7.23906 11.1378L6.30156 12.2628L5.175 10.2359L6.29625 10.049ZM4.0625 16.5628H11.5625V19.0628H4.0625V16.5628ZM14.6875 19.0628H12.1875V14.3753H11.5625V15.9378H4.0625V14.3753H3.4375V19.0628H0.9375V13.1059C0.939867 12.58 1.13064 12.0723 1.47521 11.675C1.81978 11.2777 2.29534 11.017 2.81563 10.9403L4.70219 10.6709L5.97687 12.9646C6.00151 13.009 6.03658 13.0467 6.07905 13.0745C6.12152 13.1022 6.17011 13.1192 6.22062 13.124C6.23063 13.124 6.24031 13.124 6.25 13.124C6.2958 13.124 6.34104 13.1139 6.38252 13.0945C6.42399 13.075 6.46069 13.0467 6.49 13.0115L7.8125 11.4259L9.135 13.0128C9.16432 13.048 9.20101 13.0763 9.24248 13.0957C9.28396 13.1152 9.3292 13.1252 9.375 13.1253C9.38469 13.1253 9.39437 13.1253 9.40438 13.1253C9.45492 13.1204 9.50353 13.1034 9.546 13.0756C9.58847 13.0477 9.62353 13.01 9.64812 12.9656L10.9219 10.6721L12.8094 10.9415C13.3295 11.0182 13.8048 11.2787 14.1494 11.6758C14.4939 12.0728 14.6848 12.5802 14.6875 13.1059V19.0628Z" fill="#37474F"/>
<path d="M15.9375 0.3125C15.1958 0.3125 14.4708 0.532434 13.8541 0.944489C13.2374 1.35654 12.7568 1.94221 12.473 2.62744C12.1891 3.31266 12.1149 4.06666 12.2596 4.79409C12.4043 5.52152 12.7614 6.1897 13.2859 6.71415C13.8103 7.2386 14.4785 7.59575 15.2059 7.74044C15.9333 7.88514 16.6873 7.81088 17.3726 7.52705C18.0578 7.24322 18.6435 6.76257 19.0555 6.14589C19.4676 5.5292 19.6875 4.80418 19.6875 4.0625C19.6864 3.06827 19.291 2.11507 18.588 1.41204C17.8849 0.709009 16.9317 0.313575 15.9375 0.3125ZM15.9375 7.1875C15.3194 7.1875 14.7152 7.00422 14.2013 6.66084C13.6874 6.31746 13.2869 5.8294 13.0504 5.25839C12.8139 4.68737 12.752 4.05903 12.8725 3.45284C12.9931 2.84665 13.2908 2.28983 13.7278 1.85279C14.1648 1.41575 14.7217 1.11812 15.3278 0.997546C15.934 0.876967 16.5624 0.938853 17.1334 1.17538C17.7044 1.4119 18.1925 1.81244 18.5358 2.32634C18.8792 2.84025 19.0625 3.44443 19.0625 4.0625C19.0616 4.89102 18.7321 5.68535 18.1462 6.2712C17.5604 6.85706 16.766 7.18659 15.9375 7.1875Z" fill="#37474F"/>
<path d="M16.25 1.875V1.5625H15.625V1.875C15.3764 1.875 15.1379 1.97377 14.9621 2.14959C14.7863 2.3254 14.6875 2.56386 14.6875 2.8125V3.4375C14.6875 3.68614 14.7863 3.9246 14.9621 4.10041C15.1379 4.27623 15.3764 4.375 15.625 4.375V5.625C15.5421 5.625 15.4626 5.59208 15.404 5.53347C15.3454 5.47487 15.3125 5.39538 15.3125 5.3125V4.6875H14.6875V5.3125C14.6875 5.56114 14.7863 5.7996 14.9621 5.97541C15.1379 6.15123 15.3764 6.25 15.625 6.25V6.5625H16.25V6.25C16.4986 6.25 16.7371 6.15123 16.9129 5.97541C17.0887 5.7996 17.1875 5.56114 17.1875 5.3125V4.6875C17.1875 4.43886 17.0887 4.2004 16.9129 4.02459C16.7371 3.84877 16.4986 3.75 16.25 3.75V2.5C16.3329 2.5 16.4124 2.53292 16.471 2.59153C16.5296 2.65013 16.5625 2.72962 16.5625 2.8125V3.4375H17.1875V2.8125C17.1875 2.56386 17.0887 2.3254 16.9129 2.14959C16.7371 1.97377 16.4986 1.875 16.25 1.875ZM16.5625 4.6875V5.3125C16.5625 5.39538 16.5296 5.47487 16.471 5.53347C16.4124 5.59208 16.3329 5.625 16.25 5.625V4.375C16.3329 4.375 16.4124 4.40792 16.471 4.46653C16.5296 4.52513 16.5625 4.60462 16.5625 4.6875ZM15.625 3.75C15.5421 3.75 15.4626 3.71708 15.404 3.65847C15.3454 3.59987 15.3125 3.52038 15.3125 3.4375V2.8125C15.3125 2.72962 15.3454 2.65013 15.404 2.59153C15.4626 2.53292 15.5421 2.5 15.625 2.5V3.75Z" fill="#37474F"/>
</svg>
