<svg width="40" height="40" viewBox="0 0 40 40" fill="none" xmlns="http://www.w3.org/2000/svg">
<g clip-path="url(#clip0)">
<path d="M17.5 26.875H12.5V39.375H17.5V26.875Z" fill="url(#paint0_linear)"/>
<path d="M27.5 18.125H22.5V39.375H27.5V18.125Z" fill="url(#paint1_linear)"/>
<path d="M37.5 8.75H32.5V39.375H37.5V8.75Z" fill="url(#paint2_linear)"/>
<path d="M7.5 24.375H2.5V39.375H7.5V24.375Z" fill="url(#paint3_linear)"/>
<path d="M7.5 37.5H2.5V39.375H7.5V37.5Z" fill="#22AED1"/>
<path d="M17.5 37.5H12.5V39.375H17.5V37.5Z" fill="#22AED1"/>
<path d="M27.5 37.5H22.5V39.375H27.5V37.5Z" fill="#22AED1"/>
<path d="M37.5 37.5H32.5V39.375H37.5V37.5Z" fill="#22AED1"/>
<path d="M5 18.125C5.69036 18.125 6.25 17.5654 6.25 16.875C6.25 16.1846 5.69036 15.625 5 15.625C4.30964 15.625 3.75 16.1846 3.75 16.875C3.75 17.5654 4.30964 18.125 5 18.125Z" fill="#2E5DB7"/>
<path d="M15 20.625C15.6904 20.625 16.25 20.0654 16.25 19.375C16.25 18.6846 15.6904 18.125 15 18.125C14.3096 18.125 13.75 18.6846 13.75 19.375C13.75 20.0654 14.3096 20.625 15 20.625Z" fill="#2E5DB7"/>
<path d="M25 11.875C25.6904 11.875 26.25 11.3154 26.25 10.625C26.25 9.93464 25.6904 9.375 25 9.375C24.3096 9.375 23.75 9.93464 23.75 10.625C23.75 11.3154 24.3096 11.875 25 11.875Z" fill="#2E5DB7"/>
<path d="M35.0063 4.7125L31.5813 0.6875L35.625 0.625L35.0063 4.7125Z" fill="#2E5DB7"/>
<path d="M39.375 38.75H38.125V8.75C38.125 8.58424 38.0592 8.42527 37.9419 8.30806C37.8247 8.19085 37.6658 8.125 37.5 8.125H32.5C32.3342 8.125 32.1753 8.19085 32.0581 8.30806C31.9408 8.42527 31.875 8.58424 31.875 8.75V38.75H28.125V18.125C28.125 17.9592 28.0592 17.8003 27.9419 17.6831C27.8247 17.5658 27.6658 17.5 27.5 17.5H22.5C22.3342 17.5 22.1753 17.5658 22.0581 17.6831C21.9408 17.8003 21.875 17.9592 21.875 18.125V38.75H18.125V26.875C18.125 26.7092 18.0592 26.5503 17.9419 26.4331C17.8247 26.3158 17.6658 26.25 17.5 26.25H12.5C12.3342 26.25 12.1753 26.3158 12.0581 26.4331C11.9408 26.5503 11.875 26.7092 11.875 26.875V38.75H8.125V24.375C8.125 24.2092 8.05915 24.0503 7.94194 23.9331C7.82473 23.8158 7.66576 23.75 7.5 23.75H2.5C2.33424 23.75 2.17527 23.8158 2.05806 23.9331C1.94085 24.0503 1.875 24.2092 1.875 24.375V38.75H0.625C0.45924 38.75 0.300269 38.8158 0.183058 38.9331C0.065848 39.0503 0 39.2092 0 39.375C0 39.5408 0.065848 39.6997 0.183058 39.8169C0.300269 39.9342 0.45924 40 0.625 40H39.375C39.5408 40 39.6997 39.9342 39.8169 39.8169C39.9342 39.6997 40 39.5408 40 39.375C40 39.2092 39.9342 39.0503 39.8169 38.9331C39.6997 38.8158 39.5408 38.75 39.375 38.75ZM3.125 38.75V25H6.875V38.75H3.125ZM13.125 38.75V27.5H16.875V38.75H13.125ZM23.125 38.75V18.75H26.875V38.75H23.125ZM33.125 38.75V9.375H36.875V38.75H33.125Z" fill="#50C4FC"/>
<path d="M6.56238 17.9125L13.1249 19.5562C13.1438 19.8283 13.2218 20.093 13.3535 20.3318C13.4852 20.5707 13.6674 20.7779 13.8875 20.9391C14.1075 21.1002 14.3601 21.2115 14.6275 21.265C14.8949 21.3185 15.1708 21.313 15.436 21.2489C15.7011 21.1848 15.949 21.0637 16.1625 20.8939C16.3759 20.7241 16.5498 20.5098 16.6719 20.266C16.794 20.0221 16.8615 19.7545 16.8696 19.4819C16.8776 19.2092 16.8261 18.9381 16.7186 18.6875L24.0874 12.25C24.4288 12.4361 24.8197 12.5114 25.2059 12.4656C25.592 12.4197 25.9544 12.255 26.2427 11.9941C26.5311 11.7331 26.7312 11.389 26.8154 11.0094C26.8995 10.6297 26.8635 10.2333 26.7124 9.87497L33.3124 3.68747C34.5936 5.19372 34.6186 5.33747 34.9999 5.33747C35.1506 5.33918 35.2969 5.28635 35.4117 5.18872C35.5266 5.0911 35.6023 4.95526 35.6249 4.80622C36.2874 0.431222 36.3561 0.512472 36.0936 0.212472C35.8311 -0.0875282 35.9686 -2.82489e-05 31.5749 0.0624718C31.4559 0.0636485 31.3398 0.0987445 31.2401 0.163637C31.1404 0.22853 31.0613 0.320524 31.0121 0.428814C30.9629 0.537104 30.9456 0.657192 30.9622 0.774972C30.9789 0.892751 31.0288 1.00333 31.1061 1.09372L32.4999 2.73122L25.8561 8.98122C25.5184 8.81149 25.1372 8.7478 24.7626 8.79851C24.3881 8.84922 24.0376 9.01197 23.7571 9.26539C23.4767 9.51882 23.2793 9.85109 23.1911 10.2186C23.1028 10.5862 23.1276 10.9718 23.2624 11.325L15.9124 17.75C15.4947 17.5149 15.0029 17.4487 14.538 17.5649C14.0731 17.6812 13.6703 17.971 13.4124 18.375L6.87488 16.7C6.83007 16.2598 6.63106 15.8497 6.31306 15.5421C5.99505 15.2346 5.57853 15.0493 5.13714 15.0192C4.69575 14.9891 4.25793 15.1161 3.9011 15.3776C3.54427 15.6391 3.29141 16.0184 3.18724 16.4484C3.08307 16.8784 3.1343 17.3313 3.33186 17.7272C3.52943 18.123 3.86061 18.4363 4.26684 18.6115C4.67307 18.7868 5.12818 18.8127 5.55169 18.6848C5.97521 18.5569 6.33985 18.2833 6.58113 17.9125H6.56238ZM34.8936 1.24997L34.5936 3.24997L32.9186 1.29372L34.8936 1.24997ZM25.6249 10.625C25.6249 10.7907 25.559 10.9497 25.4418 11.0669C25.3246 11.1841 25.1656 11.25 24.9999 11.25C24.8341 11.25 24.6751 11.1841 24.5579 11.0669C24.4407 10.9497 24.3749 10.7907 24.3749 10.625C24.3749 10.4592 24.4407 10.3002 24.5579 10.183C24.6751 10.0658 24.8341 9.99997 24.9999 9.99997C25.1656 9.99997 25.3246 10.0658 25.4418 10.183C25.559 10.3002 25.6249 10.4592 25.6249 10.625ZM14.9999 18.75C15.1656 18.75 15.3246 18.8158 15.4418 18.933C15.559 19.0502 15.6249 19.2092 15.6249 19.375C15.6249 19.5407 15.559 19.6997 15.4418 19.8169C15.3246 19.9341 15.1656 20 14.9999 20C14.8341 20 14.6751 19.9341 14.5579 19.8169C14.4407 19.6997 14.3749 19.5407 14.3749 19.375C14.3749 19.2092 14.4407 19.0502 14.5579 18.933C14.6751 18.8158 14.8341 18.75 14.9999 18.75ZM4.99988 16.25C5.16564 16.25 5.32461 16.3158 5.44182 16.433C5.55903 16.5502 5.62488 16.7092 5.62488 16.875C5.62488 17.0407 5.55903 17.1997 5.44182 17.3169C5.32461 17.4341 5.16564 17.5 4.99988 17.5C4.83412 17.5 4.67515 17.4341 4.55794 17.3169C4.44073 17.1997 4.37488 17.0407 4.37488 16.875C4.37488 16.7092 4.44073 16.5502 4.55794 16.433C4.67515 16.3158 4.83412 16.25 4.99988 16.25Z" fill="#50C4FC"/>
</g>
<defs>
<linearGradient id="paint0_linear" x1="15" y1="26.875" x2="15" y2="39.375" gradientUnits="userSpaceOnUse">
<stop stop-color="#CDDEFF"/>
<stop offset="1" stop-color="#94B9FF"/>
</linearGradient>
<linearGradient id="paint1_linear" x1="25" y1="18.125" x2="25" y2="39.375" gradientUnits="userSpaceOnUse">
<stop stop-color="#CDDEFF"/>
<stop offset="1" stop-color="#94B9FF"/>
</linearGradient>
<linearGradient id="paint2_linear" x1="35" y1="8.75" x2="35" y2="39.375" gradientUnits="userSpaceOnUse">
<stop stop-color="#CDDEFF"/>
<stop offset="1" stop-color="#94B9FF"/>
</linearGradient>
<linearGradient id="paint3_linear" x1="5" y1="24.375" x2="5" y2="39.375" gradientUnits="userSpaceOnUse">
<stop stop-color="#CDDEFF"/>
<stop offset="1" stop-color="#94B9FF"/>
</linearGradient>
<clipPath id="clip0">
<rect width="40" height="40" fill="white"/>
</clipPath>
</defs>
</svg>
