<svg width="18" height="18" viewBox="0 0 18 18" fill="none" xmlns="http://www.w3.org/2000/svg">
<path d="M0.666748 8.99984C0.666748 13.6023 4.39758 17.3332 9.00008 17.3332C13.6026 17.3332 17.3334 13.6023 17.3334 8.99984C17.3334 4.39734 13.6026 0.666504 9.00008 0.666504C4.39758 0.666504 0.666748 4.39734 0.666748 8.99984Z" stroke="#37474F" stroke-linecap="round" stroke-linejoin="round"/>
<path d="M9.8335 0.708008C9.8335 0.708008 12.3335 3.99967 12.3335 8.99967C12.3335 13.9997 9.8335 17.2913 9.8335 17.2913" stroke="#37474F" stroke-linecap="round" stroke-linejoin="round"/>
<path d="M8.16675 17.2913C8.16675 17.2913 5.66675 13.9997 5.66675 8.99967C5.66675 3.99967 8.16675 0.708008 8.16675 0.708008" stroke="#37474F" stroke-linecap="round" stroke-linejoin="round"/>
<path d="M1.19165 11.9165H16.8083" stroke="#37474F" stroke-linecap="round" stroke-linejoin="round"/>
<path d="M1.19165 6.08301H16.8083" stroke="#37474F" stroke-linecap="round" stroke-linejoin="round"/>
</svg>
