<svg width="34" height="33" viewBox="0 0 34 33" fill="none" xmlns="http://www.w3.org/2000/svg">
<path fill-rule="evenodd" clip-rule="evenodd" d="M4.62485 7.21864C4.62485 5.51089 6.01085 4.12489 7.7186 4.12489C9.42635 4.12489 10.8124 5.51089 10.8124 7.21864C10.8124 8.92639 9.42635 10.3124 7.7186 10.3124C6.01085 10.3124 4.62485 8.92639 4.62485 7.21864ZM21.3318 11.5504C16.8892 11.5504 13.2867 15.1309 13.2867 19.5447V27.6366C13.2867 28.3199 13.8422 28.8754 14.5256 28.8754H17.4117C18.0951 28.8754 18.6506 28.3199 18.6506 27.6366V19.5447C18.6506 17.9827 20.0036 16.7342 21.6096 16.8951C23.0038 17.0339 24.0117 18.3086 24.0117 19.7097V27.6366C24.0117 28.3199 24.5672 28.8754 25.2506 28.8754H28.1367C28.8201 28.8754 29.3756 28.3199 29.3756 27.6366V19.5447C29.3756 15.1309 25.7731 11.5504 21.3318 11.5504ZM9.57445 12.7871H5.86333C5.17995 12.7871 4.62445 13.3412 4.62445 14.0246V27.6371C4.62445 28.3205 5.17995 28.8746 5.86333 28.8746H9.57445C10.2578 28.8746 10.812 28.3205 10.812 27.6371V14.0246C10.812 13.3412 10.2578 12.7871 9.57445 12.7871Z" fill="#0077B7"/>
</svg>
