<svg width="16" height="16" viewBox="0 0 16 16" fill="none" xmlns="http://www.w3.org/2000/svg">
<path d="M9.02923 6.97162C8.48316 6.42577 7.74266 6.11914 6.97056 6.11914C6.19846 6.11914 5.45797 6.42577 4.91189 6.97162L2.85256 9.03029C2.30648 9.57637 1.99969 10.317 1.99969 11.0893C1.99969 11.8616 2.30648 12.6022 2.85256 13.1483C3.39864 13.6944 4.13929 14.0012 4.91156 14.0012C5.68384 14.0012 6.42448 13.6944 6.97056 13.1483L7.99989 12.119" stroke="#1985A1" stroke-linecap="round" stroke-linejoin="round"/>
<path d="M6.97058 9.02953C7.51665 9.57537 8.25715 9.88201 9.02925 9.88201C9.80135 9.88201 10.5418 9.57537 11.0879 9.02953L13.1473 6.97087C13.6933 6.42478 14.0001 5.68414 14.0001 4.91187C14.0001 4.13959 13.6933 3.39895 13.1473 2.85287C12.6012 2.30678 11.8605 2 11.0882 2C10.316 2 9.57533 2.30678 9.02925 2.85287L7.99991 3.8822" stroke="#1985A1" stroke-linecap="round" stroke-linejoin="round"/>
</svg>
