<svg width="40" height="40" viewBox="0 0 40 40" fill="none" xmlns="http://www.w3.org/2000/svg">
<path d="M5 9.375C4.50272 9.375 4.02581 9.57254 3.67417 9.92417C3.32254 10.2758 3.125 10.7527 3.125 11.25V34.375H36.875V11.25C36.875 10.7527 36.6775 10.2758 36.3258 9.92417C35.9742 9.57254 35.4973 9.375 35 9.375H5Z" fill="url(#paint0_linear)"/>
<path d="M34.375 11.875V31.875H5.625V11.875H34.375Z" fill="url(#paint1_linear)"/>
<path d="M34.375 11.875V13.125H5.625V11.875H34.375Z" fill="#AAE0E5"/>
<path d="M34.375 30.625V31.875H5.625V30.625H34.375Z" fill="#77CACB"/>
<path d="M1.875 34.375H38.125C38.4565 34.375 38.7745 34.5067 39.0089 34.7411C39.2433 34.9755 39.375 35.2935 39.375 35.625V36.875C39.375 37.538 39.1116 38.1739 38.6428 38.6428C38.1739 39.1116 37.538 39.375 36.875 39.375H3.125C2.46196 39.375 1.82607 39.1116 1.35723 38.6428C0.888392 38.1739 0.625 37.538 0.625 36.875V35.625C0.625 35.2935 0.756696 34.9755 0.991117 34.7411C1.22554 34.5067 1.54348 34.375 1.875 34.375Z" fill="url(#paint2_linear)"/>
<path d="M39.375 35.625V36.875C39.375 37.538 39.1116 38.1739 38.6428 38.6428C38.1739 39.1116 37.538 39.375 36.875 39.375H3.125C2.46196 39.375 1.82607 39.1116 1.35723 38.6428C0.888392 38.1739 0.625 37.538 0.625 36.875V35.625C0.625 36.288 0.888392 36.9239 1.35723 37.3928C1.82607 37.8616 2.46196 38.125 3.125 38.125H36.875C37.538 38.125 38.1739 37.8616 38.6428 37.3928C39.1116 36.9239 39.375 36.288 39.375 35.625Z" fill="#8288A1"/>
<path d="M25 36.25H15L13.75 34.375H26.25L25 36.25Z" fill="#D7DBE2"/>
<path d="M36.875 33.125H3.125V34.375H36.875V33.125Z" fill="#8288A1"/>
<path d="M31.25 0.625H8.75V31.875H31.25V0.625Z" fill="url(#paint3_linear)"/>
<path d="M31.25 30.625H8.75V31.875H31.25V30.625Z" fill="#C7CDD8"/>
<path d="M31.25 0.625H8.75V4.375H31.25V0.625Z" fill="url(#paint4_linear)"/>
<path d="M20 19.375C23.4518 19.375 26.25 16.5768 26.25 13.125C26.25 9.67322 23.4518 6.875 20 6.875C16.5482 6.875 13.75 9.67322 13.75 13.125C13.75 16.5768 16.5482 19.375 20 19.375Z" fill="url(#paint5_linear)"/>
<path d="M19.9999 14.2623C19.3965 14.2623 18.8178 14.0226 18.3912 13.596C17.9645 13.1693 17.7249 12.5907 17.7249 11.9873V11.4186C17.7249 10.8152 17.9645 10.2365 18.3912 9.80989C18.8178 9.38324 19.3965 9.14355 19.9999 9.14355C20.6032 9.14355 21.1819 9.38324 21.6085 9.80989C22.0352 10.2365 22.2749 10.8152 22.2749 11.4186V11.9873C22.2749 12.5907 22.0352 13.1693 21.6085 13.596C21.1819 14.0226 20.6032 14.2623 19.9999 14.2623Z" fill="url(#paint6_linear)"/>
<path d="M24.0501 17.8811C22.918 18.8494 21.4773 19.3815 19.9876 19.3815C18.4978 19.3815 17.0571 18.8494 15.925 17.8811C16.375 16.5436 16.225 17.0061 16.2563 16.9061C16.525 16.1339 17.0274 15.4645 17.6938 14.9909C18.3602 14.5172 19.1575 14.2627 19.9751 14.2627C20.7926 14.2627 21.5899 14.5172 22.2563 14.9909C22.9227 15.4645 23.4251 16.1339 23.6938 16.9061C23.7501 17.0061 23.6001 16.5436 24.0501 17.8811Z" fill="url(#paint7_linear)"/>
<path d="M16.2813 16.9063C16.2501 17.0063 16.4001 16.5438 15.9501 17.8813C15.1805 17.2264 14.5812 16.3947 14.2034 15.4575C13.8257 14.5203 13.6809 13.5055 13.7813 12.5C13.8674 13.3683 14.1343 14.2089 14.5649 14.9678C14.9954 15.7267 15.5801 16.387 16.2813 16.9063Z" fill="#F6B756"/>
<path d="M24.0501 17.8814L23.7501 16.9564C23.6938 16.7814 25.9188 15.5877 26.2501 12.5127C26.3447 13.5188 26.194 14.5328 25.8108 15.4678C25.4276 16.4029 24.8235 17.2311 24.0501 17.8814Z" fill="#F6B756"/>
<path d="M24.0501 17.8812C22.918 18.8496 21.4773 19.3817 19.9876 19.3817C18.4978 19.3817 17.0571 18.8496 15.925 17.8812C16.375 16.5437 16.225 17.0062 16.2563 16.9062C17.3344 17.6983 18.6373 18.1254 19.9751 18.1254C21.3128 18.1254 22.6157 17.6983 23.6938 16.9062C23.7501 17.0062 23.6001 16.5437 24.0501 17.8812Z" fill="#5B8DC9"/>
<path d="M26.875 21.875H13.125V24.375H26.875V21.875Z" fill="url(#paint8_linear)"/>
<path d="M26.875 26.875H13.125V29.375H26.875V26.875Z" fill="url(#paint9_linear)"/>
<path d="M11.25 1.875C11.0842 1.875 10.9253 1.94085 10.8081 2.05806C10.6908 2.17527 10.625 2.33424 10.625 2.5C10.625 2.66576 10.6908 2.82473 10.8081 2.94194C10.9253 3.05915 11.0842 3.125 11.25 3.125C11.4158 3.125 11.5747 3.05915 11.6919 2.94194C11.8092 2.82473 11.875 2.66576 11.875 2.5C11.875 2.33424 11.8092 2.17527 11.6919 2.05806C11.5747 1.94085 11.4158 1.875 11.25 1.875Z" fill="#5F5F5F"/>
<path d="M13.75 1.875C13.5842 1.875 13.4253 1.94085 13.3081 2.05806C13.1908 2.17527 13.125 2.33424 13.125 2.5C13.125 2.66576 13.1908 2.82473 13.3081 2.94194C13.4253 3.05915 13.5842 3.125 13.75 3.125C13.9158 3.125 14.0747 3.05915 14.1919 2.94194C14.3092 2.82473 14.375 2.66576 14.375 2.5C14.375 2.33424 14.3092 2.17527 14.1919 2.05806C14.0747 1.94085 13.9158 1.875 13.75 1.875Z" fill="#5F5F5F"/>
<path d="M16.25 1.875C16.0842 1.875 15.9253 1.94085 15.8081 2.05806C15.6908 2.17527 15.625 2.33424 15.625 2.5C15.625 2.66576 15.6908 2.82473 15.8081 2.94194C15.9253 3.05915 16.0842 3.125 16.25 3.125C16.4158 3.125 16.5747 3.05915 16.6919 2.94194C16.8092 2.82473 16.875 2.66576 16.875 2.5C16.875 2.33424 16.8092 2.17527 16.6919 2.05806C16.5747 1.94085 16.4158 1.875 16.25 1.875Z" fill="#5F5F5F"/>
<defs>
<linearGradient id="paint0_linear" x1="20" y1="34.375" x2="20" y2="9.375" gradientUnits="userSpaceOnUse">
<stop stop-color="#A0A6BA"/>
<stop offset="1" stop-color="#C6CCDA"/>
</linearGradient>
<linearGradient id="paint1_linear" x1="20" y1="31.875" x2="20" y2="11.875" gradientUnits="userSpaceOnUse">
<stop stop-color="#9DD5DF"/>
<stop offset="1" stop-color="#C3E1F5"/>
</linearGradient>
<linearGradient id="paint2_linear" x1="0.625" y1="349.375" x2="1.28007" y2="308.761" gradientUnits="userSpaceOnUse">
<stop stop-color="#A0A6BA"/>
<stop offset="1" stop-color="#C6CCDA"/>
</linearGradient>
<linearGradient id="paint3_linear" x1="20" y1="31.875" x2="20" y2="0.625" gradientUnits="userSpaceOnUse">
<stop stop-color="#D4D8E1"/>
<stop offset="1" stop-color="#F3F4F5"/>
</linearGradient>
<linearGradient id="paint4_linear" x1="8.75" y1="26.875" x2="9.39186" y2="3.76783" gradientUnits="userSpaceOnUse">
<stop stop-color="#7D85A0"/>
<stop offset="1" stop-color="#C6CCDA"/>
</linearGradient>
<linearGradient id="paint5_linear" x1="20" y1="19.375" x2="20" y2="6.875" gradientUnits="userSpaceOnUse">
<stop stop-color="#FBCC88"/>
<stop offset="1" stop-color="#FFE5C3"/>
</linearGradient>
<linearGradient id="paint6_linear" x1="19.9999" y1="14.2623" x2="19.9999" y2="9.1498" gradientUnits="userSpaceOnUse">
<stop stop-color="#7AA8D7"/>
<stop offset="1" stop-color="#C3D2E7"/>
</linearGradient>
<linearGradient id="paint7_linear" x1="15.925" y1="172.893" x2="19.1789" y2="130.748" gradientUnits="userSpaceOnUse">
<stop stop-color="#7AA8D7"/>
<stop offset="1" stop-color="#C3D2E7"/>
</linearGradient>
<linearGradient id="paint8_linear" x1="301.875" y1="114.375" x2="604.375" y2="114.375" gradientUnits="userSpaceOnUse">
<stop offset="0.341667" stop-color="#65B9CB"/>
<stop offset="1" stop-color="#65B9CB"/>
</linearGradient>
<linearGradient id="paint9_linear" x1="301.875" y1="139.375" x2="604.375" y2="139.375" gradientUnits="userSpaceOnUse">
<stop stop-color="#65B9CB"/>
<stop offset="1" stop-color="#65B9CB"/>
</linearGradient>
</defs>
</svg>
