<svg width="20" height="20" viewBox="0 0 20 20" fill="none" xmlns="http://www.w3.org/2000/svg">
<path d="M9.99999 9.99984C12.3012 9.99984 14.1667 8.13436 14.1667 5.83317C14.1667 3.53198 12.3012 1.6665 9.99999 1.6665C7.69881 1.6665 5.83333 3.53198 5.83333 5.83317C5.83333 8.13436 7.69881 9.99984 9.99999 9.99984Z" stroke="#37474F"/>
<path d="M14.1667 11.6665H14.46C15.0692 11.6667 15.6574 11.8893 16.1141 12.2926C16.5708 12.6958 16.8644 13.252 16.94 13.8565L17.2658 16.4598C17.2951 16.6944 17.2742 16.9324 17.2045 17.1583C17.1348 17.3841 17.0178 17.5925 16.8613 17.7697C16.7049 17.9468 16.5126 18.0887 16.2971 18.1859C16.0817 18.283 15.848 18.3332 15.6117 18.3332H4.38833C4.15198 18.3332 3.91832 18.283 3.70287 18.1859C3.48741 18.0887 3.29508 17.9468 3.13864 17.7697C2.9822 17.5925 2.86523 17.3841 2.7955 17.1583C2.72576 16.9324 2.70485 16.6944 2.73416 16.4598L3.05916 13.8565C3.13474 13.2517 3.42867 12.6953 3.88569 12.292C4.3427 11.8887 4.93131 11.6663 5.54083 11.6665H5.83333" stroke="#37474F" stroke-linecap="round" stroke-linejoin="round"/>
</svg>
