<svg width="18" height="24" viewBox="0 0 18 24" fill="none" xmlns="http://www.w3.org/2000/svg">
<path d="M12.5 14H11.71L11.43 13.73C12.4439 12.554 13.0011 11.0527 13 9.5C13 8.21442 12.6188 6.95772 11.9046 5.8888C11.1903 4.81988 10.1752 3.98676 8.98744 3.49479C7.79973 3.00282 6.49279 2.87409 5.23192 3.1249C3.97104 3.3757 2.81285 3.99477 1.90381 4.90381C0.994767 5.81285 0.375703 6.97104 0.124899 8.23192C-0.125905 9.49279 0.00281635 10.7997 0.494786 11.9874C0.986756 13.1752 1.81988 14.1903 2.8888 14.9046C3.95772 15.6188 5.21442 16 6.5 16C8.11 16 9.59 15.41 10.73 14.43L11 14.71V15.5L16 20.49L17.49 19L12.5 14ZM6.5 14C4.01 14 2 11.99 2 9.5C2 7.01 4.01 5 6.5 5C8.99 5 11 7.01 11 9.5C11 11.99 8.99 14 6.5 14ZM4.33 12.5L6.47 10.97L8.61 12.5L7.78 10.04L9.93 8.54H7.31L6.47 6L5.63 8.54H3L5.14 10.03L4.33 12.5Z" fill="#37474F"/>
</svg>
