<svg width="16" height="18" viewBox="0 0 16 18" fill="none" xmlns="http://www.w3.org/2000/svg">
<path d="M8.51333 0.666504C9.10418 0.666266 9.66997 0.900349 10.0818 1.31543C10.4937 1.73051 10.7165 2.29124 10.6985 2.81455L10.7056 2.93763C10.72 3.05883 10.7603 3.1758 10.8256 3.28362C10.9528 3.49623 11.1612 3.65051 11.4046 3.71245C11.6481 3.77439 11.9068 3.7389 12.1517 3.59849L12.2882 3.52942C13.3132 3.05732 14.5425 3.43249 15.111 4.39924L15.622 5.26795C15.6355 5.29085 15.6473 5.31452 15.6576 5.33879L15.705 5.43185C16.162 6.3875 15.8368 7.52423 14.9686 8.10174L14.7542 8.23374C14.6421 8.31031 14.5486 8.41032 14.4784 8.53049C14.3515 8.74393 14.3166 8.99813 14.3816 9.23681C14.4465 9.47549 14.606 9.67895 14.8477 9.81591L14.9869 9.90325C15.4071 10.1913 15.7107 10.6158 15.8432 11.1023C15.9926 11.6513 15.9125 12.2359 15.6165 12.7335L15.0668 13.6307L14.984 13.7572C14.3381 14.6671 13.0841 14.9452 12.1272 14.404L12.0138 14.3467C11.8955 14.2949 11.7678 14.2664 11.6516 14.2632C11.3988 14.262 11.156 14.3599 10.9772 14.535C10.7984 14.7102 10.6985 14.9481 10.6992 15.2247L10.6924 15.3677C10.5999 16.4751 9.65366 17.3332 8.51359 17.3332H7.48414C6.27675 17.3332 5.29796 16.3742 5.29919 15.2293L5.29211 15.1062C5.27773 14.985 5.23745 14.868 5.16884 14.7546C5.04438 14.5415 4.83818 14.3859 4.59607 14.3224C4.35395 14.2589 4.09599 14.2928 3.84629 14.4343L3.69794 14.5069C3.22875 14.7136 2.69953 14.7518 2.20363 14.6137C1.64414 14.4579 1.17108 14.0901 0.895023 13.6018L0.363911 12.7033L0.293224 12.5702C-0.190437 11.57 0.18868 10.3675 1.15088 9.82272L1.23863 9.76888C1.49568 9.59457 1.64981 9.30719 1.64981 8.99984C1.64981 8.66564 1.46783 8.35682 1.14949 8.1761L1.02032 8.09491C0.0915914 7.46214 -0.192171 6.23358 0.383164 5.25563L0.924234 4.38455C1.52599 3.36131 2.85955 3.00831 3.88521 3.5846L3.99624 3.64259C4.10943 3.69349 4.23238 3.7205 4.35076 3.72174C4.87277 3.72179 5.29805 3.31111 5.30595 2.78468L5.31304 2.62301C5.35579 2.12247 5.57748 1.65209 5.93988 1.29532C6.34876 0.892796 6.9045 0.666504 7.48414 0.666504H8.51333ZM8.51359 1.87295H7.48414C7.23211 1.87295 6.99047 1.97134 6.8127 2.14636C6.65513 2.30147 6.55873 2.50601 6.54182 2.69701L6.53062 2.95109C6.44441 4.0589 5.49966 4.9283 4.3443 4.92815C4.04648 4.92512 3.75288 4.86061 3.45347 4.72505L3.29317 4.64222C2.83642 4.3858 2.25401 4.53996 1.98373 4.99921L1.44265 5.8703C1.19473 6.29187 1.31872 6.82872 1.70262 7.09088L1.91988 7.22567C2.51822 7.62205 2.8812 8.28563 2.8812 8.99984C2.8812 9.70363 2.52836 10.3615 1.91841 10.7745L1.78857 10.8545C1.3612 11.0967 1.19627 11.6198 1.39491 12.0318L1.44181 12.1206L1.96619 13.0068C2.08932 13.2245 2.29592 13.3852 2.54027 13.4532C2.75684 13.5135 2.98799 13.4968 3.16832 13.418L3.25892 13.3746C3.75905 13.0886 4.35503 13.0103 4.9144 13.157C5.47376 13.3036 5.95015 13.6631 6.23273 14.1472C6.38474 14.3981 6.48093 14.6775 6.51816 14.9986L6.53496 15.2932C6.5868 15.7619 6.99198 16.1267 7.48414 16.1267H8.51359C9.01135 16.1267 9.42482 15.7518 9.46366 15.2925L9.46837 15.2016C9.46557 14.6319 9.69531 14.0848 10.1065 13.6819C10.5176 13.2791 11.0761 13.054 11.671 13.057C11.9629 13.0646 12.2502 13.1287 12.5439 13.2582L12.8072 13.39C13.2205 13.5677 13.7107 13.438 13.9592 13.0888L14.0196 12.9963L14.5565 12.1195C14.6835 11.9061 14.7183 11.6519 14.6533 11.4132C14.5958 11.2016 14.4638 11.0171 14.3037 10.9066L14.0768 10.7661C13.6429 10.4788 13.3276 10.0467 13.1918 9.54767C13.0424 8.99872 13.1225 8.41406 13.4121 7.92702C13.5707 7.6558 13.7886 7.42261 14.0727 7.22927L14.2066 7.14662C14.6333 6.90209 14.7981 6.37904 14.6009 5.96553L14.542 5.85425L14.5314 5.83089L14.0441 5.00157C13.8136 4.60963 13.334 4.44028 12.927 4.57409L12.8345 4.61038L12.7485 4.6533C12.25 4.94101 11.6552 5.02264 11.0952 4.88018C10.5352 4.73772 10.056 4.38288 9.76499 3.89664C9.61298 3.6457 9.51679 3.36637 9.47956 3.04529L9.46862 2.83524C9.47603 2.58253 9.37871 2.33764 9.19885 2.15636C9.01898 1.97508 8.77188 1.87295 8.51359 1.87295ZM8.00262 6.27636C9.53786 6.27636 10.7824 7.4957 10.7824 8.99984C10.7824 10.504 9.53786 11.7233 8.00262 11.7233C6.46738 11.7233 5.22282 10.504 5.22282 8.99984C5.22282 7.4957 6.46738 6.27636 8.00262 6.27636ZM8.00262 7.4828C7.14746 7.4828 6.45422 8.162 6.45422 8.99984C6.45422 9.83767 7.14746 10.5169 8.00262 10.5169C8.85778 10.5169 9.55102 9.83767 9.55102 8.99984C9.55102 8.162 8.85778 7.4828 8.00262 7.4828Z" fill="#37474F"/>
</svg>
