<svg width="480" height="458" viewBox="0 0 480 458" fill="none" xmlns="http://www.w3.org/2000/svg">
<path d="M235.003 449.653C354.298 449.653 451.003 352.946 451.003 233.651C451.003 114.356 354.298 17.6483 235.003 17.6483C115.708 17.6483 19 114.356 19 233.651C19 352.946 115.708 449.653 235.003 449.653Z" stroke="#D1E8F7" stroke-width="1.91649" stroke-miterlimit="10"/>
<path d="M59.2802 114.429C63.4821 114.429 66.8884 111.022 66.8884 106.82C66.8884 102.618 63.4821 99.2128 59.2802 99.2128C55.0789 99.2128 51.6726 102.618 51.6726 106.82C51.6726 111.022 55.0789 114.429 59.2802 114.429Z" fill="#22AED1"/>
<path d="M451.003 249.485C455.206 249.485 458.615 246.079 458.615 241.877C458.615 237.675 455.206 234.269 451.003 234.269C446.805 234.269 443.396 237.675 443.396 241.877C443.396 246.079 446.805 249.485 451.003 249.485Z" fill="#5661AE"/>
<path d="M243.862 457.261C248.064 457.261 251.47 453.855 251.47 449.653C251.47 445.451 248.064 442.045 243.862 442.045C239.661 442.045 236.254 445.451 236.254 449.653C236.254 453.855 239.661 457.261 243.862 457.261Z" fill="#2E5DB7"/>
<path d="M240.007 396.205C328.998 396.205 401.139 324.064 401.139 235.074C401.139 146.082 328.998 73.9412 240.007 73.9412C151.015 73.9412 78.8744 146.082 78.8744 235.074C78.8744 324.064 151.015 396.205 240.007 396.205Z" stroke="#D1E8F7" stroke-width="1.42966" stroke-miterlimit="10"/>
<path d="M398.377 273.206C401.511 273.206 404.052 270.665 404.052 267.531C404.052 264.397 401.511 261.856 398.377 261.856C395.242 261.856 392.701 264.397 392.701 267.531C392.701 270.665 395.242 273.206 398.377 273.206Z" fill="#22AED1"/>
<path d="M90.5593 301.303C93.694 301.303 96.2349 298.762 96.2349 295.627C96.2349 292.493 93.694 289.952 90.5593 289.952C87.4252 289.952 84.8843 292.493 84.8843 295.627C84.8843 298.762 87.4252 301.303 90.5593 301.303Z" fill="#5661AE"/>
<path d="M167.83 96.534C170.965 96.534 173.506 93.9931 173.506 90.8584C173.506 87.7243 170.965 85.1834 167.83 85.1834C164.696 85.1834 162.155 87.7243 162.155 90.8584C162.155 93.9931 164.696 96.534 167.83 96.534Z" fill="#2E5DB7"/>
<path d="M323.87 413.506H137.788C129.715 413.506 123.799 406.962 124.576 398.889L156.341 68.4372C157.117 60.3641 164.29 53.8194 172.363 53.8194H358.446C366.519 53.8194 372.434 60.3641 371.658 68.4372L339.892 398.889C339.117 406.962 331.943 413.506 323.87 413.506Z" fill="#2E5DB7"/>
<path d="M310.756 413.506H124.673C116.601 413.506 110.685 406.962 111.461 398.889L143.227 68.4372C144.003 60.3641 151.176 53.8194 159.249 53.8194H345.332C353.404 53.8194 359.32 60.3641 358.544 68.4372L326.778 398.889C326.002 406.962 318.829 413.506 310.756 413.506Z" fill="url(#paint0_linear)"/>
<path d="M303.704 402.521H133.838C126.356 402.521 120.874 396.456 121.593 388.974L151.452 78.3515C152.172 70.8697 158.82 64.8051 166.301 64.8051H336.168C343.649 64.8051 349.132 70.8697 348.412 78.3515L318.553 388.974C317.833 396.456 311.186 402.521 303.704 402.521Z" fill="white"/>
<path d="M317.326 206.112L135.103 205.95C134.358 205.971 133.618 205.831 132.932 205.543C132.246 205.254 131.628 204.823 131.123 204.276C130.616 203.731 130.232 203.083 129.996 202.377C129.76 201.67 129.678 200.922 129.754 200.181L139.578 91.0963C139.756 89.522 140.504 88.0676 141.681 87.007C142.857 85.9458 144.38 85.3526 145.964 85.3376L328.188 85.4996C328.932 85.4797 329.672 85.6182 330.359 85.9067C331.045 86.1958 331.662 86.627 332.168 87.1732C332.674 87.7195 333.058 88.3669 333.294 89.0733C333.53 89.7791 333.613 90.5277 333.536 91.2685L323.712 200.354C323.535 201.928 322.787 203.382 321.61 204.443C320.434 205.504 318.91 206.098 317.326 206.112Z" fill="url(#paint1_linear)"/>
<path d="M311.588 323.653H234.57C234.002 323.664 233.438 323.553 232.916 323.327C232.394 323.102 231.928 322.767 231.546 322.346C231.166 321.924 230.88 321.426 230.708 320.884C230.536 320.343 230.483 319.77 230.551 319.207L239.903 221.922C240.038 220.715 240.606 219.599 241.503 218.782C242.4 217.964 243.563 217.5 244.776 217.476H321.795C322.363 217.464 322.927 217.575 323.449 217.801C323.97 218.026 324.437 218.361 324.818 218.783C325.199 219.204 325.485 219.702 325.657 220.244C325.829 220.786 325.882 221.358 325.814 221.922L316.462 319.207C316.327 320.412 315.758 321.528 314.862 322.346C313.966 323.164 312.802 323.628 311.588 323.653Z" fill="url(#paint2_linear)"/>
<path d="M293.227 269.985C301.913 261.707 302.858 248.6 295.339 240.71C287.818 232.82 274.681 233.135 265.996 241.413C257.31 249.691 256.365 262.798 263.885 270.688C271.405 278.578 284.541 278.263 293.227 269.985Z" stroke="#E5E5E5" stroke-width="11.6898" stroke-miterlimit="10"/>
<path d="M269.848 274.835C262.643 271.724 258.076 264.328 258.905 255.699C260.004 244.263 270.166 234.992 281.602 234.992" stroke="white" stroke-width="11.6898" stroke-miterlimit="10" stroke-linecap="round"/>
<path d="M268.138 292.635H283.983" stroke="white" stroke-width="5.98374" stroke-miterlimit="10" stroke-linecap="round"/>
<path d="M266.413 310.581H282.258" stroke="white" stroke-width="5.98374" stroke-miterlimit="10" stroke-linecap="round"/>
<path opacity="0.4" d="M258.834 301.507H291.581" stroke="white" stroke-width="5.98374" stroke-miterlimit="10" stroke-linecap="round"/>
<path d="M217.399 323.653H140.38C139.812 323.664 139.248 323.553 138.727 323.327C138.206 323.102 137.738 322.767 137.357 322.346C136.976 321.924 136.69 321.426 136.519 320.884C136.346 320.343 136.293 319.77 136.362 319.207L145.713 221.922C145.848 220.715 146.417 219.599 147.313 218.782C148.21 217.964 149.373 217.5 150.587 217.476H227.606C228.174 217.464 228.738 217.575 229.259 217.801C229.781 218.026 230.247 218.361 230.629 218.783C231.01 219.204 231.296 219.702 231.468 220.244C231.639 220.786 231.693 221.358 231.624 221.922L222.272 319.207C222.137 320.412 221.569 321.528 220.672 322.346C219.776 323.164 218.613 323.628 217.399 323.653Z" fill="#22AED1"/>
<path d="M199.038 269.985C207.723 261.707 208.668 248.6 201.149 240.71C193.629 232.82 180.491 233.135 171.806 241.413C163.12 249.691 162.175 262.798 169.695 270.688C177.215 278.578 190.352 278.263 199.038 269.985Z" stroke="#E5E5E5" stroke-width="11.6898" stroke-miterlimit="10"/>
<path d="M206.129 255.699C205.029 267.135 194.868 276.405 183.432 276.405C171.995 276.405 163.616 267.135 164.716 255.699C165.815 244.263 175.976 234.992 187.412 234.992" stroke="white" stroke-width="11.6898" stroke-miterlimit="10" stroke-linecap="round"/>
<path d="M173.949 292.635H189.794" stroke="white" stroke-width="5.98374" stroke-miterlimit="10" stroke-linecap="round"/>
<path d="M172.223 310.581H188.069" stroke="white" stroke-width="5.98374" stroke-miterlimit="10" stroke-linecap="round"/>
<path opacity="0.4" d="M164.645 301.507H197.392" stroke="white" stroke-width="5.98374" stroke-miterlimit="10" stroke-linecap="round"/>
<path d="M305.132 393.235H133.459C132.92 393.245 132.386 393.141 131.892 392.927C131.398 392.713 130.955 392.396 130.594 391.996C130.233 391.597 129.962 391.125 129.799 390.611C129.636 390.098 129.586 389.556 129.65 389.021L134.773 335.731C134.901 334.588 135.44 333.529 136.29 332.754C137.14 331.979 138.242 331.54 139.392 331.517H311.065C311.603 331.506 312.138 331.611 312.632 331.825C313.126 332.039 313.569 332.356 313.93 332.756C314.291 333.155 314.562 333.627 314.725 334.14C314.888 334.654 314.938 335.196 314.874 335.731L309.751 389.021C309.623 390.164 309.084 391.222 308.235 391.997C307.385 392.773 306.282 393.212 305.132 393.235Z" fill="url(#paint3_linear)"/>
<path d="M145.414 380.879L147.836 355.686" stroke="white" stroke-width="11.6898" stroke-miterlimit="10" stroke-linecap="round"/>
<path d="M163.183 363.231L161.487 380.879" stroke="white" stroke-width="11.6898" stroke-miterlimit="10" stroke-linecap="round"/>
<path d="M178.677 369.258L177.56 380.879" stroke="white" stroke-width="11.6898" stroke-miterlimit="10" stroke-linecap="round"/>
<path d="M196.683 349.139L193.632 380.879" stroke="white" stroke-width="11.6898" stroke-miterlimit="10" stroke-linecap="round"/>
<path d="M210.823 369.258L209.705 380.879" stroke="white" stroke-width="11.6898" stroke-miterlimit="10" stroke-linecap="round"/>
<path d="M228.695 350.541L225.778 380.879" stroke="white" stroke-width="11.6898" stroke-miterlimit="10" stroke-linecap="round"/>
<path d="M243.062 368.282L241.851 380.879" stroke="white" stroke-width="11.6898" stroke-miterlimit="10" stroke-linecap="round"/>
<path d="M258.569 374.169L257.924 380.879" stroke="white" stroke-width="11.6898" stroke-miterlimit="10" stroke-linecap="round"/>
<path d="M276.418 355.686L273.997 380.879" stroke="white" stroke-width="11.6898" stroke-miterlimit="10" stroke-linecap="round"/>
<path d="M293.413 346.093L290.069 380.879" stroke="white" stroke-width="11.6898" stroke-miterlimit="10" stroke-linecap="round"/>
<path d="M304.184 195.454L121.96 195.292C121.216 195.312 120.476 195.173 119.79 194.884C119.103 194.596 118.487 194.164 117.98 193.618C117.474 193.072 117.09 192.425 116.854 191.718C116.618 191.012 116.535 190.264 116.612 189.523L126.436 80.4377C126.614 78.8634 127.361 77.409 128.538 76.3484C129.714 75.2878 131.238 74.694 132.823 74.679L315.045 74.8416C315.79 74.8211 316.53 74.9602 317.216 75.2487C317.902 75.5372 318.52 75.969 319.026 76.5146C319.532 77.0609 319.916 77.7089 320.152 78.4147C320.388 79.1211 320.47 79.8697 320.394 80.6099L310.571 189.695C310.392 191.27 309.644 192.724 308.468 193.785C307.291 194.845 305.768 195.439 304.184 195.454Z" fill="#2E5DB7"/>
<path d="M134.025 139.285C134.025 139.285 150.383 135.977 154.785 143.653C159.187 151.328 162.983 165.742 174.695 163.884C186.408 162.026 195.374 124.34 206.888 124.684C218.403 125.028 214.343 149.71 226.877 150.054C239.409 150.399 237.181 136.267 245.534 136.661C255.667 137.139 251.889 166.42 265.101 166.765C278.314 167.11 280.47 128.088 300.443 128.772" stroke="white" stroke-width="7.56507" stroke-miterlimit="10" stroke-linecap="round"/>
<path d="M143.329 92.8392L175.389 92.8675" stroke="white" stroke-width="11.9991" stroke-miterlimit="10" stroke-linecap="round"/>
<path opacity="0.4" d="M142.005 107.535L208.259 107.594" stroke="white" stroke-width="11.9991" stroke-miterlimit="10" stroke-linecap="round"/>
<path d="M449.063 195.344H339.812C331.583 195.344 325.502 188.673 326.23 180.443L340.889 14.9009C341.617 6.67172 348.879 0 357.109 0H466.36C474.593 0 480.669 6.67172 479.941 14.9009L465.282 180.443C464.553 188.673 457.29 195.344 449.063 195.344Z" fill="#22AED1"/>
<path d="M433.423 93.4746C450.726 76.9241 452.466 50.6715 437.319 34.8377C422.171 19.004 395.867 19.5846 378.568 36.135C361.269 52.6854 359.524 78.9381 374.673 94.7718C389.821 110.606 416.126 110.025 433.423 93.4746Z" fill="white"/>
<path d="M408.311 66.0933L435.736 91.1059C435.736 91.1059 441.975 84.3999 443.836 79.6072L408.311 66.0933Z" fill="url(#paint4_linear)"/>
<path d="M410.137 18.0452L406.24 62.0558C406.153 62.8574 406.303 63.6668 406.671 64.3847C407.039 65.102 407.609 65.6958 408.311 66.0933L445.522 86.8094C445.522 86.8094 467.619 25.1638 410.137 18.0452Z" fill="#2E5DB7"/>
<path d="M351.893 136.752H397.153" stroke="white" stroke-width="12" stroke-miterlimit="10" stroke-linecap="round"/>
<path d="M348.58 174.171H393.84" stroke="white" stroke-width="12" stroke-miterlimit="10" stroke-linecap="round"/>
<path opacity="0.4" d="M350.255 155.25H443.788" stroke="white" stroke-width="12" stroke-miterlimit="10" stroke-linecap="round"/>
<path d="M181.473 435.567H51.0168C50.4784 435.578 49.9442 435.473 49.4497 435.259C48.9553 435.045 48.5126 434.728 48.1519 434.328C47.7905 433.929 47.5195 433.456 47.3569 432.943C47.1937 432.43 47.1431 431.888 47.2082 431.353L52.3309 378.062C52.4586 376.919 52.9976 375.861 53.8474 375.086C54.6971 374.311 55.7993 373.872 56.9496 373.849H187.406C187.945 373.838 188.479 373.943 188.973 374.157C189.467 374.37 189.91 374.688 190.271 375.087C190.632 375.487 190.903 375.959 191.066 376.472C191.229 376.986 191.279 377.528 191.215 378.062L186.092 431.353C185.964 432.496 185.425 433.554 184.575 434.329C183.726 435.104 182.623 435.544 181.473 435.567Z" fill="#22AED1"/>
<path d="M63.2642 387.746H143.775" stroke="#E5E5E5" stroke-width="11.6898" stroke-miterlimit="10" stroke-linecap="round"/>
<path d="M63.2642 387.746H119.211" stroke="white" stroke-width="11.6898" stroke-miterlimit="10" stroke-linecap="round"/>
<path d="M62.0596 404.708H142.57" stroke="#E5E5E5" stroke-width="11.6898" stroke-miterlimit="10" stroke-linecap="round"/>
<path d="M62.0596 404.708H95.5085" stroke="white" stroke-width="11.6898" stroke-miterlimit="10" stroke-linecap="round"/>
<path d="M59.4272 421.67H139.938" stroke="#E5E5E5" stroke-width="11.6898" stroke-miterlimit="10" stroke-linecap="round"/>
<path d="M59.4272 421.67H79.8827" stroke="white" stroke-width="11.6898" stroke-miterlimit="10" stroke-linecap="round"/>
<path d="M172.274 392.557C174.931 392.557 177.085 390.403 177.085 387.746C177.085 385.089 174.931 382.936 172.274 382.936C169.617 382.936 167.464 385.089 167.464 387.746C167.464 390.403 169.617 392.557 172.274 392.557Z" fill="white"/>
<path d="M170.714 408.776C173.371 408.776 175.525 406.623 175.525 403.966C175.525 401.309 173.371 399.155 170.714 399.155C168.057 399.155 165.903 401.309 165.903 403.966C165.903 406.623 168.057 408.776 170.714 408.776Z" fill="white"/>
<path d="M168.973 426.481C171.629 426.481 173.783 424.326 173.783 421.67C173.783 419.013 171.629 416.859 168.973 416.859C166.316 416.859 164.162 419.013 164.162 421.67C164.162 424.326 166.316 426.481 168.973 426.481Z" fill="white"/>
<path d="M29.5021 260.999C45.7932 260.999 59 247.792 59 231.5C59 215.207 45.7932 202 29.5021 202C13.2068 202 0 215.207 0 231.5C0 247.792 13.2068 260.999 29.5021 260.999Z" fill="#2E5DB7"/>
<path d="M40.0132 230.782C40.0132 228.875 39.4949 227.002 38.5128 225.366C37.5306 223.731 36.1222 222.393 34.4379 221.496C32.7536 220.599 30.8562 220.178 28.9504 220.276C27.0446 220.374 25.2015 220.989 23.6217 222.054C22.0377 223.119 20.7755 224.594 19.9647 226.323C19.154 228.051 18.8321 229.966 19.0286 231.864C19.225 233.762 19.9313 235.571 21.0765 237.097C22.2216 238.623 23.7638 239.809 25.5317 240.528V243.98H33.4557V240.528C35.395 239.74 37.0542 238.391 38.2202 236.655C39.3904 234.92 40.0132 232.875 40.0132 230.782Z" stroke="white" stroke-width="1.55392" stroke-linecap="round" stroke-linejoin="round"/>
<path d="M25.5317 243.98H33.4851V245.674C33.4851 246.391 33.2009 247.079 32.691 247.586C32.1853 248.093 31.4957 248.378 30.781 248.378H28.2358C27.5169 248.378 26.8315 248.093 26.3216 247.586C25.8159 247.079 25.5317 246.391 25.5317 245.674V243.98Z" stroke="white" stroke-width="1.55392" stroke-linecap="round" stroke-linejoin="round"/>
<path d="M27.7175 243.98V231.903C27.7175 231.614 27.6005 231.337 27.3957 231.133C27.1909 230.928 26.9151 230.813 26.6267 230.813H26.5933C26.3049 230.813 26.0249 230.928 25.8243 231.133C25.6195 231.337 25.5024 231.614 25.5024 231.903C25.5024 232.046 25.5317 232.188 25.5861 232.32C25.6404 232.452 25.7198 232.572 25.8243 232.674C25.9246 232.775 26.0458 232.855 26.1754 232.91C26.3091 232.965 26.4512 232.993 26.5933 232.993H32.3943C32.5364 232.993 32.6785 232.965 32.8122 232.91C32.9418 232.855 33.0629 232.775 33.1632 232.674C33.2677 232.572 33.3471 232.452 33.4014 232.32C33.4558 232.188 33.4851 232.046 33.4851 231.903C33.4851 231.614 33.368 231.337 33.1632 231.133C32.9585 230.928 32.6826 230.813 32.3943 230.813H32.2981C32.0097 230.813 31.7339 230.928 31.5291 231.133C31.3243 231.337 31.2073 231.614 31.2073 231.903V243.98" stroke="white" stroke-width="1.55392" stroke-linecap="round" stroke-linejoin="round"/>
<path d="M29.5062 214.62V217.32" stroke="white" stroke-width="1.55392" stroke-linecap="round" stroke-linejoin="round"/>
<path d="M19.7726 217.221L21.1225 219.56" stroke="white" stroke-width="1.55392" stroke-linecap="round" stroke-linejoin="round"/>
<path d="M12.6467 224.34L14.983 225.69" stroke="white" stroke-width="1.55392" stroke-linecap="round" stroke-linejoin="round"/>
<path d="M46.3532 224.363L44.017 225.713" stroke="white" stroke-width="1.55392" stroke-linecap="round" stroke-linejoin="round"/>
<path d="M39.2358 217.235L37.8859 219.573" stroke="white" stroke-width="1.55392" stroke-linecap="round" stroke-linejoin="round"/>
<defs>
<linearGradient id="paint0_linear" x1="206.383" y1="-60.6246" x2="377.323" y2="796.005" gradientUnits="userSpaceOnUse">
<stop stop-color="white"/>
<stop offset="1" stop-color="#94B9FF"/>
</linearGradient>
<linearGradient id="paint1_linear" x1="226.571" y1="85.0503" x2="243.145" y2="343.064" gradientUnits="userSpaceOnUse">
<stop stop-color="white"/>
<stop offset="1" stop-color="#94B9FF"/>
</linearGradient>
<linearGradient id="paint2_linear" x1="275.809" y1="217.222" x2="302.921" y2="441.715" gradientUnits="userSpaceOnUse">
<stop stop-color="white"/>
<stop offset="1" stop-color="#94B9FF"/>
</linearGradient>
<linearGradient id="paint3_linear" x1="217.65" y1="331.369" x2="222.425" y2="463.594" gradientUnits="userSpaceOnUse">
<stop stop-color="white"/>
<stop offset="1" stop-color="#94B9FF"/>
</linearGradient>
<linearGradient id="paint4_linear" x1="425.188" y1="66.0337" x2="429.261" y2="119.379" gradientUnits="userSpaceOnUse">
<stop stop-color="white"/>
<stop offset="1" stop-color="#94B9FF"/>
</linearGradient>
</defs>
</svg>
