<svg width="14" height="16" viewBox="0 0 14 16" fill="none" xmlns="http://www.w3.org/2000/svg">
<path d="M0 4.26693V11.4669C0.000881632 12.2029 0.597319 12.7994 1.33333 12.8003H4C4.08378 12.8009 4.16254 12.8403 4.21333 12.9069L6.31787 15.7122C6.47166 15.8966 6.70003 16.0023 6.94012 16.0003C7.18022 15.9982 7.40673 15.8886 7.55733 15.7016L9.65333 12.9069C9.70421 12.8404 9.78292 12.801 9.86667 12.8003H12.5333C13.2693 12.7994 13.8658 12.2029 13.8667 11.4669V4.26693C13.8658 3.53092 13.2693 2.93448 12.5333 2.9336H10.7861C10.2896 1.13061 8.60843 -0.0864294 6.74053 0.00480259C5.01656 0.0913762 3.5412 1.27095 3.07733 2.9336H1.33333C0.597319 2.93448 0.000881632 3.53092 0 4.26693H0ZM6.7656 0.537602C7.71303 0.491707 8.63788 0.836028 9.32462 1.49032C10.0114 2.14462 10.4 3.05173 10.4 4.00026C10.4036 4.95925 10.0052 5.87587 9.3016 6.52746C8.62985 7.17558 8.25539 8.07222 8.26667 9.00559V9.33359H5.6V9.05039C5.61162 8.09674 5.23223 7.17992 4.55013 6.51333C3.54146 5.55924 3.20003 4.095 3.68268 2.79318C4.16532 1.49135 5.37875 0.603564 6.7656 0.537602ZM7.73333 11.2003H6.13333C5.83878 11.2003 5.6 10.9615 5.6 10.6669V9.86692H8.26667V10.6669C8.26667 10.9615 8.02789 11.2003 7.73333 11.2003ZM0.533333 4.26693C0.533333 3.8251 0.891506 3.46693 1.33333 3.46693H2.97253C2.96507 3.52266 2.95467 3.5776 2.94987 3.63413C2.83618 4.85492 3.29136 6.06 4.18373 6.90079C4.75946 7.46655 5.0785 8.2433 5.06667 9.05039V10.6669C5.06848 11.1518 5.39715 11.5745 5.86667 11.6957V12.0003C5.86667 12.1475 5.98606 12.2669 6.13333 12.2669C6.28061 12.2669 6.4 12.1475 6.4 12.0003V11.7336H7.46667V12.0003C7.46667 12.1475 7.58606 12.2669 7.73333 12.2669C7.88061 12.2669 8 12.1475 8 12.0003V11.6957C8.46952 11.5745 8.79818 11.1518 8.8 10.6669V9.00559C8.78838 8.21982 9.10168 7.46411 9.66587 6.91706C10.4779 6.16502 10.9377 5.10706 10.9333 4.00026C10.932 3.82182 10.9189 3.64365 10.8941 3.46693H12.5333C12.9752 3.46693 13.3333 3.8251 13.3333 4.26693V11.4669C13.3333 11.9087 12.9752 12.2669 12.5333 12.2669H9.86667C9.61515 12.2681 9.37854 12.3864 9.22667 12.5869L7.1392 15.3712C7.03071 15.4853 6.85037 15.49 6.736 15.3818L4.64 12.5869C4.48821 12.3863 4.25155 12.268 4 12.2669H1.33333C0.891506 12.2669 0.533333 11.9087 0.533333 11.4669V4.26693Z" fill="#37474F"/>
<path d="M6.40009 7.46704C6.25281 7.46704 6.13342 7.58643 6.13342 7.73371V8.53372C6.13342 8.68099 6.25281 8.80039 6.40009 8.80039C6.54737 8.80039 6.66676 8.68099 6.66676 8.53372V7.73371C6.66676 7.58643 6.54737 7.46704 6.40009 7.46704Z" fill="#37474F"/>
<path d="M6.13342 6.40027C6.13342 6.54755 6.25281 6.66694 6.40009 6.66694C6.54737 6.66694 6.66676 6.54755 6.66676 6.40027V6.13361C6.66676 5.98633 6.54737 5.86694 6.40009 5.86694C6.25281 5.86694 6.13342 5.98633 6.13342 6.13361V6.40027Z" fill="#37474F"/>
<path d="M7.46673 8.80039C7.61401 8.80039 7.73339 8.68099 7.73339 8.53372V7.73371C7.73339 7.58643 7.61401 7.46704 7.46673 7.46704C7.31946 7.46704 7.20007 7.58643 7.20007 7.73371V8.53372C7.20007 8.68099 7.31946 8.80039 7.46673 8.80039Z" fill="#37474F"/>
<path d="M7.46673 6.66694C7.61401 6.66694 7.73339 6.54755 7.73339 6.40027V6.13361C7.73339 5.98633 7.61401 5.86694 7.46673 5.86694C7.31946 5.86694 7.20007 5.98633 7.20007 6.13361V6.40027C7.20007 6.54755 7.31946 6.66694 7.46673 6.66694Z" fill="#37474F"/>
<path d="M2.66656 1.86693C2.77984 1.86699 2.8808 1.79546 2.91831 1.68857C2.95582 1.58168 2.9217 1.46275 2.83323 1.392L1.49989 0.325334C1.38487 0.233286 1.217 0.251911 1.12496 0.366934C1.03291 0.481956 1.05153 0.649819 1.16656 0.741867L2.49989 1.80853C2.5472 1.84637 2.60598 1.86696 2.66656 1.86693Z" fill="#37474F"/>
<path d="M11.3666 1.80853L12.7 0.741867C12.815 0.649819 12.8336 0.481956 12.7416 0.366934C12.6495 0.251911 12.4817 0.233286 12.3666 0.325334L11.0333 1.392C10.9589 1.45154 10.9219 1.54626 10.9363 1.64047C10.9506 1.73468 11.0142 1.81407 11.1029 1.84874C11.1917 1.8834 11.2922 1.86808 11.3666 1.80853Z" fill="#37474F"/>
<path d="M1.12498 9.50033C1.16917 9.55558 1.23351 9.59101 1.30383 9.59881C1.37415 9.60661 1.44469 9.58615 1.49991 9.54193L2.83325 8.47526C2.94827 8.38322 2.9669 8.21535 2.87485 8.10033C2.7828 7.98531 2.61494 7.96668 2.49992 8.05873L1.16658 9.1254C1.11132 9.16959 1.0759 9.23392 1.06809 9.30424C1.06029 9.37456 1.08076 9.4451 1.12498 9.50033Z" fill="#37474F"/>
<path d="M12.3668 9.54193C12.4818 9.63398 12.6496 9.61535 12.7417 9.50033C12.8337 9.38531 12.8151 9.21744 12.7001 9.1254L11.3668 8.05873C11.2517 7.96668 11.0839 7.98531 10.9918 8.10033C10.8998 8.21535 10.9184 8.38322 11.0334 8.47526L12.3668 9.54193Z" fill="#37474F"/>
<path d="M4.48242 3.46175C4.49919 3.46511 4.51625 3.46681 4.53336 3.46682C4.66092 3.46659 4.77045 3.37606 4.79469 3.25082C4.98589 2.26869 5.95842 1.85055 5.96802 1.84655C6.10418 1.79037 6.16901 1.63444 6.11282 1.49829C6.05663 1.36213 5.90071 1.2973 5.76455 1.35349C5.71362 1.37429 4.51762 1.87989 4.27122 3.14949C4.24337 3.29403 4.3379 3.4338 4.48242 3.46175Z" fill="#37474F"/>
<path d="M1.33338 4.80018H2.13338C2.28065 4.80018 2.40004 4.68079 2.40004 4.53351C2.40004 4.38624 2.28065 4.26685 2.13338 4.26685H1.33338C1.1861 4.26685 1.06671 4.38624 1.06671 4.53351C1.06671 4.68079 1.1861 4.80018 1.33338 4.80018Z" fill="#37474F"/>
<path d="M11.7333 4.80018H12.5334C12.6806 4.80018 12.8 4.68079 12.8 4.53351C12.8 4.38624 12.6806 4.26685 12.5334 4.26685H11.7333C11.5861 4.26685 11.4667 4.38624 11.4667 4.53351C11.4667 4.68079 11.5861 4.80018 11.7333 4.80018Z" fill="#37474F"/>
</svg>
