<svg width="17" height="18" viewBox="0 0 17 18" fill="none" xmlns="http://www.w3.org/2000/svg">
<path d="M1 4H2.66667H16" stroke="#37474F" stroke-linecap="round" stroke-linejoin="round"/>
<path d="M5.16675 4.00008V2.33341C5.16675 1.89139 5.34234 1.46746 5.6549 1.1549C5.96746 0.842343 6.39139 0.666748 6.83342 0.666748H10.1667C10.6088 0.666748 11.0327 0.842343 11.3453 1.1549C11.6578 1.46746 11.8334 1.89139 11.8334 2.33341V4.00008M14.3334 4.00008V15.6667C14.3334 16.1088 14.1578 16.5327 13.8453 16.8453C13.5327 17.1578 13.1088 17.3334 12.6667 17.3334H4.33342C3.89139 17.3334 3.46746 17.1578 3.1549 16.8453C2.84234 16.5327 2.66675 16.1088 2.66675 15.6667V4.00008H14.3334Z" stroke="#37474F" stroke-linecap="round" stroke-linejoin="round"/>
<path d="M6.83325 8.16675V13.1667" stroke="#37474F" stroke-linecap="round" stroke-linejoin="round"/>
<path d="M10.1667 8.16675V13.1667" stroke="#37474F" stroke-linecap="round" stroke-linejoin="round"/>
</svg>
