<svg width="34" height="33" viewBox="0 0 34 33" fill="none" xmlns="http://www.w3.org/2000/svg">
<path fill-rule="evenodd" clip-rule="evenodd" d="M11.6058 27.5003C21.569 27.5003 27.333 19.7645 27.333 12.4234C27.333 12.2213 28.7493 11.0058 29.3557 8.47165C29.4794 7.9574 28.9789 7.55177 28.5073 7.76765C27.2973 8.32315 26.0694 7.88315 25.5359 7.25065C23.4844 5.01352 20.0538 4.90627 17.8717 7.01002C16.465 8.36715 15.8683 10.3884 16.3042 12.3175C11.6965 12.6461 8.53266 10.4626 5.93116 7.46927C5.59566 7.08015 4.97278 7.28502 4.90266 7.79927C4.51766 10.662 4.39666 17.6223 11.2937 21.6194C10.096 23.3409 7.75166 24.357 5.14191 24.7929C4.56441 24.8905 4.42691 25.6908 4.95491 25.9493C7.02291 26.9668 9.29578 27.4989 11.6058 27.4961" fill="#03A9F4"/>
</svg>
