<svg width="66" height="79" viewBox="0 0 66 79" fill="none" xmlns="http://www.w3.org/2000/svg">
<path d="M57.2812 42.9062V75.7188C57.2812 76.4149 57.0047 77.0826 56.5124 77.5749C56.0201 78.0672 55.3524 78.3438 54.6562 78.3438C53.9601 78.3438 53.2924 78.0672 52.8001 77.5749C52.3078 77.0826 52.0312 76.4149 52.0312 75.7188V53.4063H23.1562L13.9688 49.4688V42.9062H57.2812Z" fill="#92CCF2"/>
<path d="M57.2812 73.0938V75.7188C57.2812 76.4149 57.0047 77.0826 56.5124 77.5749C56.0201 78.0672 55.3524 78.3438 54.6562 78.3438C53.9601 78.3438 53.2924 78.0672 52.8001 77.5749C52.3078 77.0826 52.0312 76.4149 52.0312 75.7188V73.0938C52.0312 73.7899 52.3078 74.4576 52.8001 74.9499C53.2924 75.4422 53.9601 75.7188 54.6562 75.7188C55.3524 75.7188 56.0201 75.4422 56.5124 74.9499C57.0047 74.4576 57.2812 73.7899 57.2812 73.0938Z" fill="#8AC6D6"/>
<path d="M12.0724 40.0317C9.18718 40.0147 6.41873 38.8902 4.33881 36.8905C2.25889 34.8909 1.02637 32.1688 0.895815 29.2865C0.765261 26.4042 1.74664 23.5819 3.63727 21.4024C5.52789 19.2229 8.18335 17.8527 11.0552 17.5749C11.03 13.6707 12.3623 9.87904 14.8241 6.84867C17.2858 3.8183 20.7241 1.7375 24.5506 0.96227C28.3771 0.187039 32.3542 0.76555 35.8013 2.59883C39.2484 4.43211 41.9513 7.40623 43.4477 11.0124C50.5811 8.02643 57.9377 15.3961 54.6564 22.6477H56.4546C58.7185 22.7099 60.8688 23.6529 62.4481 25.2762C64.0274 26.8995 64.911 29.0749 64.911 31.3397C64.911 33.6045 64.0274 35.7799 62.4481 37.4032C60.8688 39.0265 58.7185 39.9695 56.4546 40.0317H12.0724Z" fill="url(#paint0_linear_691:6762)"/>
<path d="M56.4807 40.0313H12.0723C10.4582 40.029 8.86349 39.679 7.3967 39.0053C5.92992 38.3316 4.62541 37.35 3.57189 36.1271C2.51838 34.9042 1.74056 33.4688 1.29133 31.9185C0.842096 30.3681 0.731993 28.7393 0.968503 27.1426C1.35768 29.8102 2.69367 32.2488 4.73236 34.0128C6.77105 35.7768 9.37635 36.7484 12.0723 36.7501H56.4807C58.5018 36.752 60.4602 36.0483 62.0178 34.7603C63.5753 33.4723 64.6343 31.6809 65.0119 29.6954C65.2547 30.9528 65.2166 32.2483 64.9001 33.4893C64.5837 34.7302 63.9969 35.8859 63.1817 36.8735C62.3665 37.8612 61.3431 38.6564 60.1846 39.2023C59.0261 39.7483 57.7613 40.0313 56.4807 40.0313Z" fill="#C7CDD8"/>
<path d="M37.5938 39.0937V56.1562H28.4062V39.0937H23.8125L33 29.9062L42.1875 39.0937H37.5938V56.1562H28.4062V39.0937H23.8125L33 29.9062L42.1875 39.0937H38.25" fill="#BCBCBC"/>
<path d="M37.5938 52.875H28.4062V56.1562H37.5938V52.875Z" fill="#BCBCBC"/>
<path d="M52.0312 75.7188V53.4063H23.1562L20.5312 49.4688H8.71875V75.7188C8.71875 76.4149 8.99531 77.0826 9.4876 77.5749C9.97988 78.0672 10.6476 78.3438 11.3438 78.3438H54.6562C53.9601 78.3438 53.2924 78.0672 52.8001 77.5749C52.3078 77.0826 52.0312 76.4149 52.0312 75.7188Z" fill="url(#paint1_linear_691:6762)"/>
<path d="M54.6562 78.3438H11.3438C10.6476 78.3438 9.97988 78.0672 9.4876 77.5749C8.99531 77.0826 8.71875 76.4149 8.71875 75.7188V73.0938C8.71875 73.7899 8.99531 74.4576 9.4876 74.9499C9.97988 75.4422 10.6476 75.7188 11.3438 75.7188H52.0312C52.0312 76.4149 52.3078 77.0826 52.8001 77.5749C53.2924 78.0672 53.9601 78.3438 54.6562 78.3438Z" fill="#92CCF2"/>
<defs>
<linearGradient id="paint0_linear_691:6762" x1="33.0002" y1="40.0317" x2="33.0002" y2="0.65674" gradientUnits="userSpaceOnUse">
<stop stop-color="#DDE1E8"/>
<stop offset="1" stop-color="#F3F4F5"/>
</linearGradient>
<linearGradient id="paint1_linear_691:6762" x1="55" y1="64" x2="9" y2="64" gradientUnits="userSpaceOnUse">
<stop stop-color="#63B9CF"/>
<stop offset="1" stop-color="#92CCF2"/>
</linearGradient>
</defs>
</svg>
